<svg enable-background="new 0 0 369.1 119.4" viewBox="0 0 369.1 119.4" xmlns="http://www.w3.org/2000/svg"><g fill="#fff"><path clip-rule="evenodd" d="m54.9 42.3c-.3-.7.2-1.7.2-1.7.5-.2 1.5-.1 1.8.6s0 1.4-.9 1.9c0 .1-.5-.1-1.1-.8z" fill-rule="evenodd"/><path clip-rule="evenodd" d="m80.2 85.5-5.2 4.2v-43h5.3v38.8z" fill-rule="evenodd"/><path clip-rule="evenodd" d="m83.6 81.8v-35.1h4.3v26.7c-.8 2.6-2.1 5.3-4.3 8.4z" fill-rule="evenodd"/><path clip-rule="evenodd" d="m66.4 85.9 5.3 4.2v-43.4h-5.3z" fill-rule="evenodd"/><path clip-rule="evenodd" d="m63.5 83v-36.3h-4.7v28.5c.1 2 3.6 6.9 4.7 7.8z" fill-rule="evenodd"/><path d="m73.1 95.6c-19.8 0-35.9-16.1-35.9-35.9s16.1-35.9 35.9-35.9 35.9 16.1 35.9 35.9-16.1 35.9-35.9 35.9v1.3c20.5 0 37.1-16.7 37.1-37.1 0-20.5-16.7-37.1-37.1-37.1-20.5-.1-37.1 16.5-37.1 37s16.7 37.1 37.1 37.1z"/><path d="m73.1 109.7c-27.5 0-50-22.4-50-50s22.4-50 50-50c27.5 0 50 22.4 50 50s-22.5 50-50 50v1.6c28.5 0 51.6-23.1 51.6-51.6s-23.1-51.6-51.6-51.6-51.6 23.1-51.6 51.6 23.1 51.6 51.6 51.6z"/><g clip-rule="evenodd" fill-rule="evenodd"><path d="m30.6 74.3c1.1 1.1 1.7 1.9 2.3 3.3.6 1.3.7 2.1.7 3.5l2.6-1.1c-.9-1-1.5-1.7-2-3-.6-1.4-.9-2.3-1-3.9z"/><path d="m30.4 80c1.1-1.1 1.9-1.7 3.3-2.3 1.3-.5 2.1-.7 3.5-.7l-1.1-2.6c-1 .9-1.7 1.5-3 2-1.4.6-2.3.8-3.9 1z"/><path d="m115.5 74.3c-1.1 1.1-1.7 1.9-2.3 3.3-.6 1.3-.7 2.1-.7 3.5l-2.6-1.1c.9-1.1 1.5-1.7 2-3 .6-1.4.9-2.3 1-3.9z"/><path d="m115.7 80c-1.1-1.1-1.9-1.7-3.3-2.3-1.3-.5-2.1-.7-3.5-.7l1.1-2.6c1 1 1.7 1.5 3 2 1.4.6 2.3.8 3.9 1z"/><path d="m53 95.5c.7-.4 1 0 1.2-.2.1-.2 0-.2-.2-.4s-.5-.4-.8-.5c-.3-.2-.5-.4-.7-.6-.1-.1-.3-.3-.5-.1-.3.3.9.7.2 1.6-.2-.1-.4.2-1.2.7l-3.4 1.9c-.1 0-.2.1-.3.1s0-.2 0-.3l1.2-3.9c.2-.7.5-1.3.7-1.6.3-.4.7.2.9-.1.1-.2.1-.2-.2-.4-.1-.1-.4-.3-1-.7-.3-.2-.6-.5-.9-.7-.1-.1-.3-.4-.5-.2-.1.1 0 .2 0 .2.3.4.3.6.2 1.1l-2 7.2c-.1.5-.1.7 0 .8s.2.1.5-.1z"/><path d="m61.9 99.2c.2-.9.9-.3 1-.7 0-.1 0-.2-.2-.2s-.3 0-1.2-.3c-.4-.1-1-.3-1.5-.4-.2-.1-.4 0-.4.1-.1.4 1.2.4 1 1.4l-1.4 5.4c-.3 1.4-1 .6-1.2 1.1 0 .1 0 .1.2.2.6.1 1.1.2 1.4.3.5.1 1.2.3 2.9.8.9.2 1.8-.6 2-1.5.1-.2 0-.3-.1-.3-.4-.1-.6 1.4-3.3.8-.8-.2-.6-.6-.5-1.3z"/><path d="m68.4 100.5c.1-.8.1-.8 1.5-.7 2.2.2 1.2 1.5 1.7 1.5.3 0 .2-.4.2-.5v-1.2c0-.1-.1-.2-.2-.2-1-.1-1.8-.1-2.6-.1-1.7-.1-2.5-.2-3-.3-.2 0-.3.1-.3.2 0 .5 1.3.2 1.2 1.2l-.4 5.5c-.1 1.4-.9.7-.9 1.3 0 .1.1.1.2.1.6 0 1.1 0 1.4.1.6 0 1.2.1 2.9.3.9.1 1.7-.9 1.7-1.8 0-.2-.1-.3-.1-.3-.4 0-.4 1.5-3.2 1.3-.8-.1-.7-.5-.7-1.2l.1-1.5c0-.7 0-.8.5-.8l.8.1c1.2.1.8 1.3 1.1 1.3s.2-.4.2-.6l.1-2.1c0-.3-.1-.3-.2-.3-.2 0-.3 1.1-1.3 1l-.7-.1c-.5 0-.5-.1-.4-.6z"/><path d="m74.4 106.2c.1 1.2-1 1.1-.9 1.6 0 .2.2.1.4.1.3 0 .6-.1 1-.1s.8 0 1.3-.1c.1 0 .4 0 .4-.2 0-.6-1.4.4-1.6-1.9l-.4-4c0-.1 0-.2.1-.2s.1 0 .2.1l5.9 5.7c.1.1.1.2.3.1.1 0 .1-.1.1-.4l-.6-6.6c-.1-1.2.9-1 .8-1.4 0 0 0-.2-.2-.1-.1 0-.5.1-1.2.2-.7 0-1 0-1.2 0-.1 0-.2.1-.2.2 0 .4 1.4.1 1.5 1.1l.3 3.9c0 .3 0 .4-.1.4s-.2-.1-.4-.3l-5-4.8c-.2-.2-.1-.3-.5-.3-.6.1-.9.1-1.2.2-.2 0-.4 0-.6 0-.1 0-.2.1-.2.2 0 .6 1.2-.3 1.4 2z"/><path d="m88.4 97.1c0-.1-.1 0-.2 0-.2 0 0 .4-.3.5s-1.4-.3-2.7.1c-2.7.8-3.1 3.7-2.5 5.6.3.9 1.6 3.7 4.8 2.7 2.3-.7 2.9-2.8 2.8-3.2 0-.1-.1-.1-.2-.1-.3.1-.6 1.8-2.2 2.3-2.1.6-3.6-1.4-4.1-3-.5-1.5-.1-3.4 1.5-3.9 1.3-.4 2.5.3 3.4 1.2.1.1.3.3.4.3.2-.1.1-.3 0-.4z"/><path d="m91.6 96.4c-.5-1 .4-1 .2-1.4-.1-.1-.1-.1-.4 0-.6.3-.9.5-1.3.7s-.8.3-1.1.6c-.1 0-.4.1-.3.3.2.4 1.2-.5 1.7.4l2.7 5c.5 1-.3 1.1-.1 1.5 0 .1.1.1.2.1.3-.1.7-.4 1.1-.6.8-.4 1.2-.6 1.5-.8.2-.1.3-.2.2-.3-.2-.3-1 .7-1.7-.5z"/><path d="m27.1 54.9c-.7-.3-.6-.7-.8-.7s-.2.1-.2.3v.8c0 .3-.1.5-.1.8 0 .1-.1.4.1.4.4 0 .1-1 1.2-.9.2 0 .6.1 1.4.4l3.5 1.7c.1 0 .2.1.2.1 0 .1-.2.1-.3.1l-3.9.8c-.7.2-1.3.2-1.7.2-.5 0-.3-.6-.6-.6-.2 0-.2 0-.2.3 0 .2 0 .4-.1 1 0 .3-.1.6-.1 1 0 .1-.1.4.1.5.1 0 .2-.1.2-.1.2-.4.3-.5.8-.6l7.1-1.7c.5-.1.6-.2.7-.3 0-.1-.1-.2-.4-.3z"/><path d="m32.8 54.1c1.2.3.8 1.1 1.2 1.2.2 0 .2-.2.2-.3.1-.2.1-.5.1-.8.1-.3.2-.6.3-1.1 0-.1.1-.3-.1-.4-.5-.1 0 1.2-2.3.7l-3.9-.9c-.1 0-.2-.1-.2-.1s.1-.1.2-.1l7-3.1c.1 0 .2-.1.2-.2s-.1-.1-.3-.2l-6.5-1.5c-1.2-.3-.8-1-1.1-1.1 0 0-.1 0-.2.1 0 .1 0 .4-.2 1-.1.6-.3.9-.3 1s.1.2.2.2c.4.1.4-1.1 1.5-.8l3.8.9c.3.1.4.1.4.2s-.2.1-.4.2l-6 2.5c-.3.1-.3 0-.4.3-.1.5-.1.7-.2 1 0 .2-.1.3-.2.5 0 .1.1.2.2.2.6.1 0-1.1 2.3-.6z"/><path d="m29.7 44.2c-1.1-.3-.4-.9-.8-1-.1 0-.2 0-.3.3-.2.5-.2.9-.3 1.2s-.3.7-.4 1c0 .1-.1.3.1.4.4.1.4-1 1.4-.7l5.4 1.8c1.1.3.6.9 1 1 .1 0 .1 0 .2-.1.1-.2.2-.6.3-1 .2-.7.4-1 .5-1.4.1-.2 0-.3-.1-.3-.4-.1-.2 1.1-1.6.6z"/><path d="m32.4 37.4c-.5-.5-.3-.9-.6-1-.2-.1-.2.1-.3.2-.1.2-.2.5-.3.7-.1.3-.3.5-.4.7 0 .1-.2.3 0 .4.4.2.4-.9 1.4-.4.2.1.5.3 1.2.8l2.8 2.7c.1.1.2.2.2.2 0 .1-.2 0-.3 0l-4-.4c-.8-.1-1.3-.2-1.6-.3-.5-.2-.1-.7-.4-.8-.2-.1-.2 0-.3.2-.1.1-.1.4-.4 1-.1.3-.3.6-.4.9-.1.1-.3.4 0 .5.1 0 .2-.1.2-.1.3-.3.4-.4.9-.3l7.3.7c.5 0 .7 0 .7-.1s0-.2-.2-.4z"/><path d="m34.4 34.9c-.7-.4-.7-.5-.1-1.4 1-1.5 1.8-.2 2-.5.1-.2-.2-.4-.4-.4l-1-.6c-.1-.1-.2-.1-.3 0-.5.7-.8 1.3-1.1 1.8-.8 1.2-1.2 1.8-1.4 2.1-.1.1 0 .2.1.3.4.3.7-.8 1.6-.3l4.7 3c1.2.8.3 1 .7 1.3.1 0 .1 0 .2-.1.3-.4.5-.8.6-1 .3-.4.6-.8 1.4-2.1.4-.7-.1-1.7-.9-2.2-.2-.1-.3-.1-.3-.1-.2.3 1.2 1-.1 3-.4.6-.7.3-1.3-.1l-1.3-.6c-.6-.4-.7-.4-.5-.8l.4-.6c.5-.8 1.4.1 1.6-.2.1-.2-.3-.4-.4-.5l-1.8-1.1c-.3-.2-.3-.1-.3 0-.1.2.8.8.4 1.5l-.3.5c-.2.3-.3.3-.7 0z"/><path d="m46.2 30.4c.2.2.3.3.5.2.5-.2 1.1-.3 1.5-.7 1-.8.9-2.2-.1-3.4s-1.8-1.1-2.9-.9c-1.4.3-1.9.5-2.4-.1s-.5-1.2 0-1.6c1.3-1 2.8.5 2.9.4.2-.1.1-.3-.1-.4l-1.1-1.1c-.2-.2-.3-.4-.4-.3s-.2.4-.2.5c-.2.2-.8.1-1.4.6-.9.7-.8 2 .1 3 .8 1 1.5 1 2.4.8 1.7-.3 2.3-.6 2.9.2.6.7.5 1.5 0 2-.8.7-2 .2-2.9-.4-.1-.1-.2-.2-.3-.1-.2.2.1.4.2.5z"/><path d="m47.4 21.4c-.6-.9.2-1 0-1.3-.1-.1-.1-.1-.4.1-.4.3-.7.5-1 .7s-.6.4-.9.6c-.1 0-.3.2-.2.3.2.3.9-.5 1.5.3l3.3 4.7c.6.9-.1 1.1.1 1.4 0 0 .1.1.2.1.2-.1.5-.4.8-.6.6-.4.9-.6 1.2-.8.2-.1.2-.2.1-.3-.2-.3-.8.7-1.6-.4z"/><path d="m80.4 14.2c.1-.5.3-.7.7-.7 1.4.3 1.2 2 1.2 2.3-.1.3-.4 1.6-1.5 1.4-.2 0-.4-.1-.4-.1-.1 0-.2.1-.2.2 0 0 0 .3.9.5 1.1.2 2.1-.5 2.4-2 .3-1.7-.8-2.5-2-2.7-.7-.1-1.3-.2-1.5-.2-.7-.1-1.2-.3-1.3-.3-.2 0-.3.1-.3.2-.1.4 1 .1.8 1.4l-.9 5.1c-.3 1.5-1 1.1-1 1.4 0 .2.1.2.2.2s.8.1 1.2.2c.2 0 .6.2 1.3.3.1 0 .2.1.3-.1.1-.4-.9-.1-.7-1.6z"/><path d="m88.3 14.7c-2.2-.7-4 .7-4.8 3.2-.8 2.3-.1 4.2 1.7 4.8 2.9 1 4.4-1.6 4.9-3.1.8-2.4 0-4.3-1.8-4.9zm.5 5c-.6 1.9-1.7 3.2-3.2 2.7-1.6-.5-1.4-3.1-.8-4.7s1.5-3 3.1-2.5c1.1.3 1.8 2 .9 4.5z"/><path d="m93.6 18.2c.4-.8.8-.1 1-.5.1-.1 0-.2-.1-.2-.1-.1-.3-.1-1-.4-.3-.2-.8-.5-1.1-.6-.2-.1-.3-.1-.4 0-.2.4.9.6.5 1.5l-2.5 5c-.7 1.3-1 .4-1.3.9 0 .1 0 .1.1.2.5.2.8.4 1.1.5.4.2.9.5 2.2 1.2.7.4 1.6-.3 2.1-1.1.1-.2.1-.3 0-.3-.3-.2-.9 1.3-3 .2-.6-.3-.4-.7 0-1.3z"/><path d="m98.7 21.4c.6-.9 1-.2 1.2-.5.1-.1.1-.2-.2-.3-.4-.3-.8-.5-1-.6-.3-.2-.6-.4-.9-.6-.1 0-.2-.2-.4 0-.2.3.8.7.2 1.6l-3.2 4.7c-.6.9-1 .3-1.3.6 0 0-.1.1 0 .2.2.1.6.3.9.6.6.4.9.7 1.2.8.2.1.3.1.3 0 .2-.3-1-.5-.2-1.7z"/><path d="m98.3 28c-.9 1.1-1.4 0-1.6.4-.2.2 0 .3.1.4.3.2.6.4 1.1.8s.7.6 1 .9c.2.2.3.3.5.1.2-.3-1-.7-.1-1.9l3.3-4.2c.3-.4.5-.4.8-.2l.6.5c.9.6-.2 1.5.1 1.7.2.1.4-.3.5-.4l.6-.9c.1-.1.2-.2.1-.3-.7-.5-1.2-.9-2.3-1.8s-1.6-1.3-2.3-1.8c-.1-.1-.2 0-.3.1l-1.1 1.1c-.1.1-.3.3-.2.4.3.3 1.1-1.1 1.9-.5l.6.5c.3.2.3.3 0 .8z"/><path d="m106.5 28.1c.6-.6.6-.5 1.4.3 1.3 1.3-.3 1.7 0 2.1.1.2.4-.1.5-.3l.8-.8c.1-.1.1-.2 0-.3-.6-.6-1-1.1-1.5-1.5-1-1.1-1.4-1.6-1.7-1.9-.1-.1-.2-.1-.3 0-.3.3.7.8-.1 1.6l-4.1 3.8c-1.1 1-1.1 0-1.5.4-.1 0-.1.1 0 .2.4.4.7.6.9.9.3.3.7.8 1.7 1.9.5.6 1.6.3 2.3-.3.2-.2.1-.2.1-.3-.2-.3-1.3.9-2.9-.8-.5-.5-.1-.8.4-1.3l1.1-1c.5-.5.6-.6.9-.3l.5.5c.7.7-.4 1.4-.2 1.6s.4-.2.5-.3l1.5-1.5c.2-.2.1-.3.1-.3-.1-.1-.9.6-1.5 0l-.4-.4c-.3-.3-.2-.4.2-.7z"/><path d="m113.5 35.5v-.1c-.1-.1-.4.1-.5 0-.2-.2 0-1.2-.6-2.2-1.3-2-4.1-1.3-5.7-.2-.8.5-3.1 2.6-1.5 4.9 1.1 1.7 3.2 1.5 3.6 1.2.1 0 .1-.1 0-.2-.1-.2-1.8.1-2.6-1.1-1-1.5.5-3.4 1.9-4.4 1.3-.9 3.1-1.2 3.9 0 .6.9.2 2.2-.5 3.2-.1.1-.3.3-.2.5.1.1.3 0 .4-.1z"/><path d="m108.8 40.2c-1.1.5-1.3-.4-1.7-.2-.2.1 0 .2 0 .3.1.2.3.4.4.7s.2.6.4 1c.1.1.1.3.3.3.5-.2-.7-1 1.3-2l3.7-1.7c.1 0 .2-.1.2 0 0 0 0 .1-.1.2l-3.7 6.7c-.1.1-.1.2 0 .3 0 .1.1.1.4 0l6-2.8c1.1-.5 1.2.3 1.5.2 0 0 .1-.1.1-.2s-.2-.4-.5-.9c-.3-.6-.4-.9-.4-1-.1-.1-.2-.1-.2-.1-.4.2.3 1.1-.7 1.6l-3.6 1.7c-.3.1-.4.2-.4.1s.1-.2.2-.4l3.1-5.7c.1-.2.3-.2.1-.5-.2-.5-.4-.7-.5-.9s-.1-.3-.2-.5c0-.1-.2-.1-.3-.1-.5.2.6.9-1.4 1.8z"/><path d="m117.2 46.4c1.1-.3.9.5 1.3.3.1 0 .1-.1.1-.4-.2-.5-.3-.8-.4-1.1s-.2-.7-.3-1c0-.1-.1-.3-.3-.3-.4.1.2 1-.8 1.4l-5.4 1.8c-1.1.3-1-.4-1.4-.3-.1 0-.1.1-.1.1.1.2.2.6.4 1 .2.7.3 1.1.4 1.4.1.2.1.3.3.2.4-.1-.5-1 .9-1.4z"/><path d="m119.8 53.5c.1 0 .1-.1.1-.1 0-.1-.4-.1-.4-.2 0-.3.5-1.1.3-2.3-.4-2.4-3.2-2.9-5.1-2.5-.9.2-3.8 1.1-3.4 3.8.3 2 2.3 2.7 2.8 2.6.1 0 .1-.1.1-.2 0-.2-1.7-.6-1.9-2.1-.3-1.8 1.9-2.9 3.5-3.2s3.3.2 3.6 1.6c.2 1.1-.7 2.1-1.7 2.8-.1.1-.4.2-.3.4 0 .2.3.1.4 0z"/><path d="m51.9 83.4c-.3.2-.3.2-.7-.3-.6-.8.2-.8 0-1-.1-.1-.2 0-.3.1l-.4.3s-.1.1 0 .1c.3.4.5.6.7.9.5.6.7.9.8 1.1 0 .1.1.1.1 0 .2-.1-.3-.5.1-.8l2.1-1.6c.5-.4.5.1.7-.1v-.1c-.2-.2-.3-.4-.4-.5-.2-.2-.3-.5-.8-1.1-.2-.3-.8-.3-1.1 0-.1.1-.1.1-.1.1.1.2.7-.3 1.4.6.2.3 0 .4-.2.6l-.6.4c-.3.2-.3.2-.4.1l-.2-.3c-.3-.4.2-.7.1-.8s-.2 0-.3.1l-.7.8c-.1.1-.1.1-.1.2.1.1.5-.2.7.1l.2.2c.1.2.1.2-.1.3z"/><path d="m52.8 80c.4 0 .5.2.6.2s0-.1-.1-.2-.2-.2-.3-.4c-.1-.1-.2-.2-.3-.4-.1-.1-.1-.1-.1-.1-.2.1.2.4 0 .6-.1 0-.2.1-.4.1h-.7c-.2 0-.3 0-.3 0s0-.1.1-.2l.3-.8c0-.1.1-.2.2-.3.2-.1.3.1.4 0s0-.1 0-.2c-.1-.1-.2-.2-.4-.4-.1-.2-.2-.3-.3-.4-.1-.2-.2-.2-.2-.2-.1.1.1.2-.1.8l-.5 1.3c-.1.1-.1.2-.1.3 0 0-.2 0-.3 0h-1c-.6 0-.8-.3-.9-.2 0 0-.1.1 0 .1.1.2.3.3.3.4.1.1.2.2.3.4 0 0 .1.1.1 0 .1-.1-.2-.3 0-.5.1-.1.2-.1.4-.1h.7.2v.1l-.4 1.2c0 .1-.1.1-.1.2-.2.1-.3-.1-.4 0 0 0-.1 0 0 .1s.2.2.4.5.3.4.4.5.1.1.1 0c.2-.1-.2-.2.2-1.1l.4-1c0-.1.1-.3.1-.3h.3z"/><circle cx="67.8" cy="30.3" r="1.1"/><circle cx="57.8" cy="32.6" r="1.1"/></g><path d="m91 35.7c-.3.6-.6.7-1.6.6-.9-.2-.9-1.3-.8-1.8l-1.6-.5c-.6 1.3-1.4 1.3-2 1.3-1.1-.1-1.1-1.9-1.1-3l-1.5-.3c-.7 2.1-1.1 2.4-2 2.6-.5.1-.9-.2-1.1-.4-.3-.4-.5-.8-.6-1.3 0-.2.1-.5.1-.7l-1.6-.2c-.1.3-.1.5-.1.8-.1.6-.4 1.1-.8 1.4-.3.2-.5.2-.8.2-.7-.2-1.7-.8-1.7-3.8h-1.6v.3c0 2.1-.5 3.2-1.7 3.5-.3.1-.6 0-.9-.2-.4-.3-.7-.9-.8-1.4 0-.2 0-.5-.1-.7l-1.6.1v.7c0 .5-.3 1.1-.6 1.5-.3.3-.6.4-1 .4-.9-.2-1.4-.6-2.2-2.7l-1.3.1c.1 1.1 0 2.9-1 3.1-.6.1-1.2 0-2-1.5l-1.5.4c.1 1-.3 2-.9 2.1-1 .3-1 .3-1.5-.6l-.1-.2-1.4.8.1.2c.7 1.2 1.3 1.8 3.2 1.3.9-.2 1.5-.9 1.8-1.7.7.6 1.5.8 2.4.7.8-.1 1.6-.6 2.1-1.9.5.6 1.2 1 2.1 1.2s1.7-.1 2.4-.8c.2-.2.3-.3.4-.5.1.2.3.3.5.5.7.5 1.5.7 2.3.5 1.1-.3 1.7-.9 2.1-1.6.5.8 1.2 1.3 2.1 1.6.8.2 1.5.1 2.2-.4.2-.1.4-.3.6-.5.1.1.2.2.3.3.7.8 1.6 1.1 2.6.9.9-.2 1.5-.5 2-1.1.5 1.3 1.4 1.7 2.1 1.8s1.6 0 2.4-.6c.3.8 1 1.4 1.9 1.5.8.1 2.5.4 3.4-1.5z"/><circle clip-rule="evenodd" cx="78.1" cy="30.4" fill-rule="evenodd" r="1.1"/><circle clip-rule="evenodd" cx="88.3" cy="32.4" fill-rule="evenodd" r="1.1"/><path clip-rule="evenodd" d="m57.8 41.2 1.2-1.1 1.5.6-1.1 1.1z" fill-rule="evenodd"/><path d="m55.2 40.3c6.8-2.2 10.8-2.8 18-2.8s11.3.6 18 2.8c0 0 .6.1.8-.5s-.3-.9-.3-.9c-6.8-2.2-11.1-2.8-18.5-2.8-7.3 0-11.6.7-18.4 2.8 0 0-.5.2-.3.9s.7.5.7.5z"/><path d="m56.6 44.7c.6-.1 1.2-.3 1.9-.4 3.4-.8 7.5-1.7 14.5-1.7 5.8 0 9.8.8 14.7 1.8l1.8.4s.6.1.7-.6-.4-.9-.4-.9l-1.8-.4c-5-1.1-9-1.9-15-1.9-7.2 0-11.5 1-14.9 1.8-.7.2-1.3.3-1.9.4 0 0-.5.2-.4.9.2.7.8.6.8.6z"/><path clip-rule="evenodd" d="m66.9 39.5 1.3-1 1.5.8-1.4.9z" fill-rule="evenodd"/><path clip-rule="evenodd" d="m91.2 42.3c.3-.7-.2-1.7-.2-1.7-.5-.2-1.6-.1-1.8.6-.3.8 0 1.4.9 1.9-.1 0 .5-.2 1.1-.8z" fill-rule="evenodd"/><path clip-rule="evenodd" d="m88.4 41.2-1.2-1.1-1.5.6 1.1 1.1z" fill-rule="evenodd"/><path clip-rule="evenodd" d="m79.2 39.5-1.3-1-1.5.8 1.4.9z" fill-rule="evenodd"/><path clip-rule="evenodd" d="m84.7 40.3c.1-.8-.8-1.4-1.9-1.6-1.2-.2-2.2.1-2.4.9s.7 1.4 1.9 1.6 2.3-.1 2.4-.9z" fill-rule="evenodd"/><path clip-rule="evenodd" d="m99.5 44.2c.2-.1.4-.1.5.1.4.7-.3 1.1-.4 1.2s-.7.4-1-.1c-.1-.1-.1-.2-.1-.2 0-.1-.1 0-.1 0s-.1.1.1.5c.3.5.9.7 1.5.3.7-.4.7-1.1.3-1.7-.2-.3-.4-.6-.4-.6-.2-.3-.3-.6-.3-.6-.1-.1-.2-.1-.2-.1-.2.1.3.4-.2.7l-2.2 1.3c-.6.4-.7 0-.9.1-.1.1 0 .1 0 .1s.2.3.3.5c.1.1.1.3.3.6 0 .1.1.1.1.1.2-.1-.3-.4.4-.8z" fill-rule="evenodd"/><path clip-rule="evenodd" d="m104.2 56.6c.1 0 .2 0 .2-.1s-.2-.1-.2-.2.3-.6.2-1.3c-.2-1.2-1.5-1.6-2.5-1.4-.5.1-1.9.5-1.7 1.9.1.5.4 1 .8 1.5h.2c.1 0 .2 0 .5-.1.7-.1.5.3.7.2.1 0 .1 0 .1-.1 0-.2-.1-.3-.1-.5s0-.5-.1-.7c0-.1 0-.2-.2-.2s.3.6-.6.7c-.3 0-.8.1-.9-.8-.1-.8.9-1.3 1.7-1.4 1.5-.2 1.9.4 2 .8.2 1.3-1.1 1.5-1.1 1.6s0 .1.1.1z" fill-rule="evenodd"/><path clip-rule="evenodd" d="m103.7 62.1c.4 0 .4.1.3.7-.1 1-.7.5-.8.7 0 .1.2.1.3.1h.6c.1 0 .1 0 .1-.1 0-.4.1-.8.1-1.1.1-.8.1-1.1.2-1.3 0-.1 0-.1-.1-.1-.2 0-.1.6-.6.5l-2.7-.3c-.7-.1-.4-.4-.6-.4 0 0-.1 0-.1.1v.6c0 .2-.1.5-.2 1.3 0 .4.4.7.9.8h.1c0-.2-.8-.2-.6-1.4 0-.4.2-.3.6-.3l.7.1c.3 0 .4 0 .4.2v.4c-.1.5-.7.3-.7.5 0 .1.2.1.3.1l1 .1c.2 0 .2 0 .2-.1s-.5-.2-.5-.6v-.3c0-.2.1-.2.3-.2z" fill-rule="evenodd"/><path clip-rule="evenodd" d="m100.4 63.8c-.1 0-.2 0-.2.1-.1.3-.3.5-.4.8-.1.6.3 1.2 1.1 1.3.7.1 1-.1 1.4-.6.5-.6.6-.8 1-.8.4.1.6.3.5.7-.2.8-1.2.7-1.3.8 0 .1 0 .1.2.1l.8.1h.2c0-.1-.1-.2 0-.3 0-.1.3-.3.4-.7.1-.6-.3-1-1-1.2-.6-.1-.9.1-1.2.5-.6.7-.7 1-1.2.9s-.7-.4-.6-.8c.1-.5.7-.7 1.3-.8.1 0 .1 0 .1-.1s-.2-.1-.2-.1z" fill-rule="evenodd"/><path clip-rule="evenodd" d="m99.9 66.3c-.1 0-.2 0-.3.1-.2.2-.4.4-.5.7-.2.6.2 1.2.9 1.4s1 0 1.5-.4c.5-.5.7-.8 1.1-.6.4.1.5.4.4.7-.3.8-1.3.5-1.4.7 0 .1 0 .1.2.2l.8.2c.1 0 .2.1.2 0s0-.2 0-.3.3-.3.5-.7c.2-.5-.2-1.1-.8-1.3s-.9 0-1.2.4c-.6.6-.8.9-1.3.7-.4-.1-.6-.5-.5-.9.2-.5.8-.6 1.4-.6.1 0 .1 0 .2-.1 0-.1-.1-.1-.2-.1z" fill-rule="evenodd"/><path clip-rule="evenodd" d="m101.7 70.5c.5.2.2.5.4.5.1 0 .1 0 .1-.1.1-.3.1-.4.2-.6s.1-.3.2-.5c0 0 .1-.2 0-.2-.2-.1-.2.5-.7.3l-2.6-1c-.5-.2-.3-.5-.4-.5h-.1c0 .1-.1.3-.2.5-.1.4-.2.5-.3.7v.2c.2.1.1-.5.8-.3z" fill-rule="evenodd"/><path clip-rule="evenodd" d="m100 70.5c-1.1-.4-2.1 0-2.4.9-.5 1.5.7 2.3 1.5 2.5 1.2.4 2.1 0 2.4-.9.4-1.1-.3-2.1-1.5-2.5zm1.3 2.3c-.2.6-1 .9-2.3.5-.9-.3-1.6-.9-1.3-1.7s1.5-.7 2.3-.4c.9.3 1.6.8 1.3 1.6z" fill-rule="evenodd"/><path d="m57.3 83.3c-.2-.5-.3-.8-.6-1.3-.6-.9-.8-1.2-1.7-2.4-.1-.1-.1-.1-.2-.2l1-1.1.1-.1.2-.1v-.1l-.5-.7c-.6-.9-1.1-1.6-1.6-2.7-.8-1.7-1.1-2.7-1.6-4.5l-.6.2-1.5.4c-2.4-6.1-3-11.5-2-16.3l3.4 1.5.4.2.1-.4 1.6-6 .1-.2h-.1l-.3-.5-1.5-.8.6-2.9.2-.3-.4-.2-6.6-4.2-.2.3-.3-.2c-3.6 5.1-5.7 11.4-5.8 17.8-.2 6.7 1.6 13.1 5.2 18.5l.2.3.3-.2 2.1-1.3c.1.3.4.9.7 1.3.1.2.2.4.4.6l-1.9 1.2.2.3-.3.2.2.4c1.3 2.2 4.3 7.4 7.4 6.3.9-.3 1.5-.8 2-1.2.3-.3.7-.6 1.1-.8l.3-.2s-.1-.3-.1-.3zm-3-4.6c-.4-.6-.9-1.3-1.3-1.9l1.8 1.3zm-3-7.7-.3 1.3c-.2-.4-.3-.7-.5-1.1zm.3-16.2-3.1-1.3c.1-.2.1-.4.2-.6l2 .2h.2l.1-.2 1.7-2.1zm-2.7-2.7c.6-1.9 1.5-3.6 2.7-5.3l-1.2 5.5zm3.9-2.7-1.4 1.8.5-2.2zm-7.5 26.8c-3.4-5.2-5.1-11.3-4.9-17.7.2-6.1 2.1-12.2 5.5-17.1l5.9 3.8c-5.9 7.5-6.3 16.6-1.2 27.8zm2.8-.8 3.1-1.9.3-.2.5-1.9c.3 1.1.7 2 1.3 3.4.4.8.7 1.4 1.1 2l-2.1-1.5-.1-.1-.3.2-2.7 1.8c-.1-.2-.3-.4-.4-.5-.3-.4-.6-1-.7-1.3zm7.5 8.9c-.5.4-1 .8-1.8 1.1-2.5.8-5.4-4.1-6.5-6v-.1l4.6-3c.7 1.3 1.7 2.7 2.5 3.7 1 1.2 1.1 1.4 1.7 2.3.3.5.4.7.5 1.2-.4.3-.7.5-1 .8zm50.9-25.8c-.2-6.4-2.2-12.7-5.8-17.8l-.3.2-.2-.3-6.6 4.2-.4.2.2.3.6 2.9-1.4.8-.3.2h-.1l.1.2 1.6 6 .1.4.4-.2 3.4-1.5c1.1 4.8.4 10.2-2 16.3l-1.5-.4h-.5c-.5 1.7-.8 2.8-1.6 4.5-.5 1.1-1 1.8-1.6 2.7l-.6.8.3.3.9 1c0 .1-.1.1-.1.2-.8.9-.9 1.1-1.5 1.7l-.5.4c-.7.5-1 1.2-1 1.7 0 .3.2.6.6.7.8.3 1 .4 1.2.4.1 0 .2.1.4.1l.8.1c1.2.2 1.4.2 2.9-.3 2.8-.8 4.5-4.5 4.5-4.8l-.4-.1.2-.3-1.3-.6c.3-.4.7-1 1-1.4.2-.4.5-1 .7-1.3l2.1 1.3.3.2.2-.3c3.6-5.4 5.4-11.8 5.2-18.5zm-12.3-9.6.5 2.2-1.4-1.8zm.3-2.2c1.2 1.7 2.1 3.5 2.7 5.3l-1.5.2zm0 8.1-1.1-4 1.7 2.1.1.2h.2l2-.2c.1.2.1.4.2.6zm1.1 16.4c-.1.4-.3.7-.5 1.1l-.3-1.3zm-4.4 7.1 1.4-.8c-.3.5-.6.9-.9 1.3zm6.5 1.5c-.4.9-1.9 3.4-3.9 4-1.4.4-1.5.4-2.6.2l-.7-.1c-.2-.1-.3-.1-.4-.1-.2 0-.4-.1-1.1-.4-.1 0-.1-.1-.1-.1 0-.2.2-.7.7-1l.5-.4c.6-.6.8-.7 1.6-1.7.7-.9 1.2-1.5 1.9-2.8zm-.3-3.1c-.3.5-.7 1.1-1 1.4l-2.8-1.7-.3-.2-1.9 1c.5-.8.9-1.4 1.4-2.5.6-1.3 1-2.2 1.3-3.4l.5 1.9.3.2 3.1 1.9c-.1.4-.4 1-.6 1.4zm3.4-.5-5.2-3.2c5-11.3 4.6-20.4-1.2-27.8l5.9-3.8c3.4 4.9 5.3 10.9 5.5 17.1.1 6.4-1.6 12.5-5 17.7z"/><path clip-rule="evenodd" d="m75.3 39.3c0-.8-.9-1.3-2.1-1.3s-2.2.4-2.2 1.2.9 1.3 2.1 1.3 2.2-.4 2.2-1.2z" fill-rule="evenodd"/><path clip-rule="evenodd" d="m61.3 40.3c-.1-.8.7-1.4 1.9-1.6s2.2.1 2.4.9-.7 1.4-1.9 1.6-2.3-.1-2.4-.9z" fill-rule="evenodd"/><path clip-rule="evenodd" d="m47.4 70.9c.6-.3.6.3.8.2.1-.1.1-.1 0-.2-.1-.2-.2-.3-.3-.6s-.2-.5-.3-.6-.1-.2-.2-.2c-.1.1.3.6-.3.9l-2.2 1.1c-.2.1-.3.1-.4-.1l-.2-.4c-.3-.5.3-.6.3-.8-.1-.1-.2 0-.3.1l-.4.3s-.1.1-.1.1c.2.4.4.7.7 1.4s.4 1 .6 1.4c0 .1.1 0 .2 0l.7-.2c.1 0 .2 0 .1-.1-.1-.2-.7.2-.9-.3l-.2-.5c-.1-.2-.1-.2.2-.4z" fill-rule="evenodd"/><path clip-rule="evenodd" d="m43.5 68.2c-.4.1-.4.1-.5-.5-.3-.9.5-.7.4-1 0-.1-.2 0-.3 0l-.5.2s-.1.1-.1.1c.1.4.2.7.3 1.1.2.7.3 1.1.3 1.3 0 .1.1.1.1.1.2-.1-.1-.6.4-.7l2.5-.7c.7-.2.5.3.7.2 0 0 0 0 0-.1-.1-.3-.2-.5-.2-.6-.1-.2-.1-.5-.3-1.3-.1-.4-.6-.6-1-.4-.1 0-.1.1-.1.1.1.2.7-.1 1.1 1.1.1.3-.1.4-.4.5l-.7.2c-.3.1-.4.1-.4-.1l-.1-.4c-.1-.5.5-.5.4-.7 0-.1-.2 0-.3 0l-.9.3c-.1 0-.1.1-.1.1 0 .1.5 0 .6.4l.1.3c.1.2 0 .2-.2.3z" fill-rule="evenodd"/><path clip-rule="evenodd" d="m43.4 65.6c.6-.1 1-.6.9-1.1s-.6-.9-.7-.8c-.1 0-.1 0-.1.1s.3.3.4.6c.1.5-.5.8-1 .9-.3.1-.7 0-.8-.3 0-.3.1-.4.4-.5 0 0 .1 0 .1-.1s-.3-.3-.4-.3c-.3.1-.3.5-.3.7.1.5.8.9 1.5.8z" fill-rule="evenodd"/><path clip-rule="evenodd" d="m42.2 59.2c-.5 0-.3-.4-.5-.4 0 0-.1 0-.1.1v.7.6c0 .1 0 .1.1.1.2 0 0-.5.6-.5h.8c.1 0 .2 0 .2.2v1.5c0 .1-.1.1-.2.1h-.9c-.5 0-.3-.4-.5-.4-.1 0-.1 0-.1.1v.6.6c0 .1 0 .2.1.2.2 0 0-.6.6-.6h2.5c.7 0 .5.4.7.4.1 0 .1-.1.1-.1 0-.2 0-.5 0-.7 0-.4 0-.5 0-.7s0-.2-.1-.2c-.2 0 0 .6-.7.6h-.9c-.2 0-.3 0-.3-.2v-1.3c0-.2.1-.2.3-.2h1c.5 0 .4.4.6.4 0 0 .1 0 .1-.1 0-.3 0-.4 0-.6s0-.5 0-.7c0-.1 0-.1-.1-.1-.2 0 0 .5-.7.5z" fill-rule="evenodd"/><path clip-rule="evenodd" d="m44.9 57.8c.6.1.4.5.6.5.1 0 .1-.1.1-.1 0-.1 0-.3 0-.4 0-.2.1-.3.1-.6 0-.1 0-.2-.1-.2-.3 0 .1.6-1 .5l-1.9-.2c-.1 0-.1 0-.1 0s0-.1.1-.1l3.1-2.1s.1-.1.1-.1c0-.1 0-.1-.2-.1l-3.1-.3c-.6-.1-.4-.5-.6-.5 0 0-.1 0-.1.1v.5c0 .3-.1.5-.1.6s0 .1.1.1c.2 0 .1-.6.6-.5l1.8.2c.1 0 .2 0 .2.1 0 0-.1.1-.2.1l-2.4 1.7c-.1.1-.1 0-.2.2v.5c0 .1 0 .2-.1.3 0 .1 0 .1.1.1.3 0 0-.6 1-.5z" fill-rule="evenodd"/><path clip-rule="evenodd" d="m43.1 52.1c-.5-.1-.2-.4-.4-.5-.1 0-.1 0-.1.2-.1.3-.1.5-.1.6 0 .2-.1.4-.1.5 0 0-.1.2 0 .2.2 0 .2-.5.6-.4l2.6.6c.5.1.3.4.5.5h.1c0-.1 0-.3.1-.5.1-.4.1-.6.2-.7 0-.1 0-.2 0-.2-.2 0 0 .6-.7.4z" fill-rule="evenodd"/><path clip-rule="evenodd" d="m44.2 47.5c-.1.1.1.2.1.3-.1.1-.5.4-.7.9-.4 1.2.5 2.1 1.4 2.4.4.2 1.8.5 2.3-.9.4-1-.2-1.8-.4-1.9h-.1c0 .1.5.7.2 1.4-.3.9-1.5.9-2.2.6s-1.3-.9-1-1.6c.2-.5.8-.8 1.4-.8.1 0 .2 0 .2-.1s-.1-.1-.1-.1z" fill-rule="evenodd"/><path clip-rule="evenodd" d="m56.5 96.2c0-.4 0-.4-.1-.5s-.3.1-.4.2l-6 5c-.6.5-1 .1-1.2.4-.1.1.1.2.2.3.3.1.6.3.9.4.3.2.6.4.9.5.2.1.5.3.6.1.1-.3-1-.7-.6-1.4.1-.3.5-.6.6-.7.6-.6.8-.5 1-.4l2 1c.3.1.3.3.2 1.3 0 .3-.1.6-.2.8-.3.6-1 .2-1.1.5-.1.1.1.2.2.3.3.2.7.3 1.1.5.7.3.9.5 1.3.7.3.1.4.2.4 0 .2-.3-.6-.2-.5-1.1zm-1.6 3.8c0 .2 0 .3-.1.4s-.2 0-.4-.1l-1.4-.7c-.2-.1-.3-.2-.3-.3.1-.1.2-.2.3-.3l1.7-1.5c.1-.1.2-.1.2-.1.1 0 0 0 0 .1z" fill-rule="evenodd"/><path clip-rule="evenodd" d="m104 96.1c-.2-.3-.4.4-1.2 0l-6.9-3.8c-.3-.2-.4-.2-.4-.1-.1.1 0 .3 0 .5l2 7.5c.2.7-.3 1-.1 1.2.1.1.2 0 .3-.1.3-.2.5-.4.8-.6s.6-.4.9-.6c.2-.1.5-.3.4-.5-.2-.2-1 .6-1.6 0-.2-.2-.3-.6-.4-.9-.3-.8-.1-1 0-1.1l1.8-1.4c.2-.2.3-.1 1.2.4.3.2.5.3.7.5.4.6-.3 1-.1 1.2.1.1.2 0 .4-.1.3-.2.6-.5.9-.8.6-.5.9-.6 1.2-.9.1-.1.2-.2.1-.4zm-5.2-.2-1.2.9c-.2.1-.3.2-.3.1-.1-.1-.1-.3-.2-.4l-.6-2.2c0-.1 0-.2 0-.2h.1l2 1.1c.1.1.3.1.4.3s0 .3-.2.4z" fill-rule="evenodd"/><path clip-rule="evenodd" d="m65.7 30-.2-1.1c-.1-.4-.5-.7-1-.6l-1 .2-.2-1c-.1-.4-.5-.7-1-.6l-1.1.2c-.5.1-.7.5-.6 1l.2 1-.9.2c-.4.1-.7.5-.6 1l.2 1.1c.1.4.5.7 1 .6l4.6-1c.4-.1.7-.5.6-1zm-3 1.4c-.6.1-1.3-.3-1.4-.9s.3-1.3.9-1.4 1.3.3 1.4.9c.2.7-.3 1.3-.9 1.4z" fill-rule="evenodd"/><path clip-rule="evenodd" d="m75.4 27.1h-1v-1c0-.5-.4-.8-.8-.8h-1.1c-.5 0-.8.4-.8.8v1h-1c-.5 0-.8.4-.8.8v1.1c0 .5.4.8.8.8h4.7c.5 0 .8-.4.8-.8v-1c0-.5-.4-.9-.8-.9zm-2.4 2.7c-.7 0-1.2-.5-1.2-1.2s.5-1.2 1.2-1.2 1.2.5 1.2 1.2-.5 1.2-1.2 1.2z" fill-rule="evenodd"/><path clip-rule="evenodd" d="m86.3 29.3-.9-.2.2-1c.1-.4-.2-.9-.6-1l-1.1-.2c-.4-.1-.9.2-1 .6l-.2 1-1-.2c-.4-.1-.9.2-1 .6l-.3 1.1c-.1.4.2.9.6 1l4.6 1c.4.1.9-.2 1-.6l.2-1.1c.2-.5-.1-.9-.5-1zm-1.5 1.2c-.1.6-.8 1.1-1.4.9-.6-.1-1.1-.8-.9-1.4.1-.6.8-1.1 1.4-.9.6.1 1.1.8.9 1.4z" fill-rule="evenodd"/><path clip-rule="evenodd" d="m94.2 31.3c-.4-.2-.9-.1-1.1.3l-.5.9-.9-.5c-.4-.2-.9-.1-1.1.3l-.6 1c-.2.4-.1.9.3 1.1l1.8 1.2c.4.2.9.1 1.1-.3l.6-1c.2-.4.4-.8.4-.8l.9-1.6zm-1.9 4.1c-.6-.3-.8-1.1-.4-1.6.3-.6 1.1-.8 1.6-.4z" fill-rule="evenodd"/><path clip-rule="evenodd" d="m56.1 33.3-.6-1c-.2-.4-.7-.5-1.1-.3l-.8.5-.6-.9c-.2-.4-.7-.5-1.1-.3l-1 .6.9 1.6s.2.4.4.8l.6 1c.2.4.7.5 1.1.3l1.8-1.2c.5-.2.6-.8.4-1.1zm-2.3 2.1-1.2-2.1c.6-.3 1.3-.2 1.6.4.4.6.2 1.3-.4 1.7z" fill-rule="evenodd"/><path clip-rule="evenodd" d="m45.8 30.7c-.1-.1-.2-.1-.2 0-.1.1-.1.2-.1.3s-.2.2-.4.1c-1.6-.5-3.4-1-3.5-1-.1-.1 0-.4 0-.7 0-.4-.2-.9-.8-1.4-.4-.4-1.8-1.3-3.2.3-.4.5-.8 1-1.2 1.5s-.5.5-.8.8c-.1.1-.1.2 0 .3.3.3.7-.8 1.7.1l3.9 3.4c1.1 1 .3 1.3.6 1.6.2.2.3 0 .3-.1.3-.4.6-.7.9-1.1l.6-.6c.1-.2.1-.3.1-.3-.3-.3-.6.7-1.5-.1l-1.5-1.3c-.3-.3-.4-.3-.1-.7s.5-.4 1-.2l1.9.6c.7.2 1.5.5 2-.1.4-.5.6-1.1.3-1.4zm-5.4.4c-.2.2-.4.5-.6.3l-1.8-1.6c-.5-.5-.3-.7-.1-1 .6-.7 1.6-.5 2.5.2.5.5 1 1 0 2.1z" fill-rule="evenodd"/><path clip-rule="evenodd" d="m64.8 21.3c-.1-.4-.5.2-1-.5l-4.7-6.1c-.2-.3-.3-.3-.3-.3-.1 0-.1.3-.1.5l-.2 7.6c0 .7-.5.8-.4 1 0 .1.2.1.3 0 .3-.1.5-.2.8-.3s.6-.1.9-.2c.2-.1.5-.1.4-.3-.1-.3-1 .2-1.3-.6-.1-.3-.1-.7-.1-1 0-.8.1-.9.3-1l1.8-.6c.2-.1.3 0 .9.8.2.3.3.5.4.7.2.7-.5.8-.3 1.1.1.2.2.1.3 0 .3-.1.6-.2 1-.4.6-.2.9-.2 1.2-.3 0 .1.1.1.1-.1zm-4.2-2.2-1.2.4c-.2.1-.3.1-.3 0-.1-.2 0-.3 0-.4v-2.2c0-.1 0-.2.1-.2 0 0 0 0 .1.1l1.4 1.8c.1.1.2.2.2.4 0 0-.2 0-.3.1z" fill-rule="evenodd"/><path clip-rule="evenodd" d="m120.6 57.5c0-.1-.2-.1-.4-.2l-7.4-1.9c-.7-.2-.7-.7-.9-.6-.2 0-.1.2-.1.3 0 .3.1.5.1.8v.9c0 .2 0 .5.2.5.3 0 0-1 .9-1.1.3 0 .7.1 1 .1.8.1.9.3.9.5l.2 1.9c0 .2-.1.3-1 .7-.3.1-.5.2-.8.2-.7.1-.7-.6-1-.6-.2 0-.1.1-.1.3 0 .3.1.6.2 1 .1.6 0 .9.1 1.2 0 .3 0 .3.2.3.4 0-.1-.5.7-.9l7-3.3c.2 0 .2 0 .2-.1zm-2.3 0-2.1 1c-.1.1-.3.1-.4.1s-.1-.1-.1-.3l-.1-1.3c0-.2 0-.3.1-.3.2 0 .3 0 .4.1l2.2.5z" fill-rule="evenodd"/><path clip-rule="evenodd" d="m103.5 50.9c-.4-1.1-1.5-1.4-2.7-1.1-1.1.4-1.7 1.2-1.4 2.2.5 1.5 1.9 1.3 2.7 1.1 1.2-.3 1.7-1.2 1.4-2.2zm-1.8 1.8c-.9.3-1.8.3-2-.5-.3-.8.8-1.5 1.6-1.8s1.6-.3 1.9.5c.2.6-.3 1.4-1.5 1.8z" fill-rule="evenodd"/><path clip-rule="evenodd" d="m101.9 47.2c-.1-.3-.3-.6-.4-.9s-.1-.3-.2-.5c0-.1-.1-.1-.1-.1-.2.1.2.5-.4.8l-2.3 1.1c-.7.3-.7-.1-.8-.1-.1.1 0 .1 0 .2.1.2.2.4.3.7.1.2.1.3.2.4 0 .1.1.1.1.1.2-.1-.2-.4.3-.7l.9-.4c.2-.1.2-.1.3.1s.1.3-.1.5l-.7.8c-.2.3-.5.6-.3.9.1.2.3.4.5.3 0 0 .1-.1 0-.1 0 0-.1-.1-.1-.1s-.1-.1 0-.2c.5-.6 1.1-1.4 1.1-1.4.1 0 .2.1.3.2.2.1.4.1.8 0 .3-.2 1-.6.6-1.6zm-.9 1c-.3.1-.6.3-.9-.4-.1-.1-.1-.3 0-.4l1.1-.5c.3-.1.4 0 .5.2.1.5-.2.9-.7 1.1z" fill-rule="evenodd"/><path clip-rule="evenodd" d="m104.7 57.8c-.2 0 0 .5-.7.5l-2.6-.3c-.7-.1-.5-.5-.7-.5-.1 0-.1.1-.1.1 0 .2 0 .5-.1.8 0 .2-.1.3-.1.4s0 .2.1.2c.2 0 0-.5.6-.4l1 .1c.2 0 .2 0 .2.3 0 .2-.1.3-.4.4l-1 .3c-.4.1-.7.2-.8.6 0 .2.1.5.3.6 0 0 .1 0 .1-.1 0 0 0-.1 0-.2 0 0 0-.1.1-.2.8-.3 1.7-.6 1.7-.6.1 0 .1.2.2.3.1.2.3.3.7.4.3 0 1.1 0 1.2-1.1 0-.3 0-.7.1-1 0-.3.1-.3.1-.6zm-.3 1.4c0 .5-.5.7-1.1.7-.3 0-.7-.1-.6-.8 0-.1 0-.3.2-.3l1.2.1c.3 0 .3.1.3.3z" fill-rule="evenodd"/><path clip-rule="evenodd" d="m49.9 45c-.2-.1-.1.3-.5.2l-3.6-.5c-.2 0-.2 0-.2 0 0 .1 0 .1.1.2l2.3 2.8c.2.3.1.5.2.5s.1 0 .1-.1c.1-.1.1-.3.2-.4s.2-.3.2-.4c.1-.1.2-.2.1-.3s-.3.4-.7.2c-.1-.1-.3-.2-.3-.3-.3-.3-.2-.4-.2-.5l.5-.9c.1-.1.1-.1.6 0 .2 0 .3 0 .4.1.3.2.1.4.2.5.1 0 .1 0 .1-.1.1-.1.1-.3.2-.5.2-.3.2-.4.3-.6 0 .2.1.1 0 .1zm-2.2.8-.3.6c0 .1-.1.1-.1.1-.1 0-.1-.1-.2-.1l-.7-.8c0-.1 0-.1 0-.1h.1l1.1.1c.1 0 .1 0 .2.1-.1-.1-.1 0-.1.1z" fill-rule="evenodd"/><path d="m89.6 44.7h-.4-33.8v18.7c0 8.2.5 15.1 6.8 21.5 3.7 3.8 6.2 5.5 10.4 8.4l.3.2.5.3.4-.4c1.3-1.1 2.4-1.9 3.5-2.7 2.2-1.6 4.2-3 6.7-6 6-7.2 7.1-12.6 7.1-21.4v-18.6zm-6.8 39c-2.4 2.8-4.2 4.2-6.4 5.7-1.1.8-1.8 1.3-3.2 2.4-4-2.7-6.5-4.4-10-8.1-5.9-6-6.4-12.3-6.4-20.4v-17.2h32.7v17.2c.1 8.6-.9 13.6-6.7 20.4z"/><path clip-rule="evenodd" d="m109.1 26.4-.6-1.1-.5 1.7.4.6z" fill-rule="evenodd"/><path clip-rule="evenodd" d="m66.6 19.6c.3 1.4-.9 1.1-.8 1.5.1.3.2.2.4.2.4-.1.7-.2 1.3-.3s.9-.2 1.3-.2c.3-.1.5-.1.4-.3-.1-.3-1.2.3-1.5-1.2l-1.1-5.3c-.1-.6 0-.6.3-.7l.8-.2c1.1-.3 1 1.1 1.4 1 .2-.1 0-.5 0-.6l-.3-1c0-.1-.1-.3-.2-.2-.9.2-1.5.4-2.8.7-1.4.3-2 .4-2.9.6-.1 0-.1.2-.1.3l.2 1.6c0 .2 0 .4.2.4.4-.1-.2-1.6.9-1.8l.8-.2c.4-.1.5 0 .6.5z" fill-rule="evenodd"/><path clip-rule="evenodd" d="m54.1 23.9c.7 1.3-.6 1.2-.3 1.7.1.2.3.1.4.1.3-.2.6-.4 1.2-.7s.9-.4 1.2-.6c.2-.1.4-.2.3-.4-.2-.3-1.1.6-1.8-.7l-2.5-4.8c-.3-.5-.2-.6.1-.8l.7-.4c.9-.5 1.3.8 1.6.6.2-.1-.1-.5-.2-.6l-.6-.9c-.1-.1-.1-.2-.3-.2-.8.4-1.3.7-2.6 1.4-1.2.6-1.8.9-2.6 1.3-.1.1 0 .2 0 .3l.6 1.5c.1.1.1.4.3.3.4-.2-.6-1.4.4-1.9l.7-.4c.3-.2.5-.2.7.3z" fill-rule="evenodd"/><path clip-rule="evenodd" d="m68.3 97.8-1.2.1 1.3 1.2.7-.1z" fill-rule="evenodd"/><path d="m158.7 17.2c.4.1.8.2 1.3.2.3 0 .7-.1.9-.2-.2 2.9-.5 8.4-.6 12.9-.1 5.5-3.3 9-8.9 9-6.2 0-8.9-2.9-8.9-8.9 0-1.9.2-3.4.2-4.9 0-3.4-.1-6.3-.2-8.1.5.1 1.1.2 1.6.2.4 0 .9-.1 1.3-.2-.2 1.8-.4 6.1-.4 10.7 0 4.2 0 9.8 7 9.8 6.8 0 6.8-6.4 6.8-10.3.1-6 .1-9-.1-10.2z"/><path d="m186.4 39.1c-4.7-5.6-10.4-11.6-15.7-17.2 0 1.2-.1 3-.1 6.3 0 2.7.1 9.3.3 10.5-.3-.1-.7-.2-1.1-.2s-.7.1-1.2.2c.2-1.5.7-9.4.7-13.6 0-3.9 0-7-.1-8.4h.5c5.1 5.5 12 13 15.8 16.9 0-5.6 0-11.7-.2-16.5.3.1.7.2 1.1.2.3 0 .7-.1 1-.2-.2 1.8-.5 8-.5 10.4 0 3.2.1 10.1.1 11.5h-.6z"/><path d="m195.5 25.3c0-2.7-.1-5.4-.2-8.1.5.1 1 .2 1.5.2s1-.1 1.5-.2c-.1 2.7-.2 5.4-.2 8.1v5.4c0 2.7.1 5.4.2 8.1-.5-.1-1-.2-1.5-.2s-1 .1-1.5.2c.1-2.7.2-5.4.2-8.1z"/><path d="m203.6 17.2c.5.1 1.1.2 1.6.2s1.1-.1 1.6-.2c1.8 5.5 4.5 12.1 7.1 18.4 2.3-5 5.8-14.3 7.1-18.4.4.1.8.2 1.2.2s.8-.1 1.2-.2c-3.2 7.2-6.2 14.3-9 21.5-.3-.1-.7-.2-1-.2s-.7.1-1 .2c-2-5.1-5.8-14.3-8.8-21.5z"/><path d="m228.8 25.2c0-2.7-.1-5.4-.2-8 1.9.1 3.7.2 5.6.2s3.7-.1 5.6-.2c-.1.3-.1.6-.1.9s0 .6.1.9c-2.6-.2-4.1-.4-8.2-.4 0 1.3-.1 2.4-.1 4v4.1c3.7 0 5.7-.2 7.6-.3-.1.3-.1.7-.1 1s0 .6.1.9c-2.2-.2-6.1-.3-7.6-.3v4.5c0 2.4 0 3.9.1 4.7 2.8 0 6.5 0 8.4-.4-.1.3-.1.7-.1 1s0 .6.1.9c-1.8-.1-3.7-.2-5.6-.2s-3.8.1-5.7.2c.1-2.7.2-5.4.2-8.1z"/><path d="m246.3 25.3c0-2.7-.1-5.4-.2-8.1 1.2.1 2.4.2 3.6.2s2.4-.2 3.6-.2c3.5 0 6.5 1.2 6.5 4.9 0 4-4 5.6-6.4 6 1.5 1.9 6.7 8.6 8.5 10.6-.6-.1-1.2-.2-1.9-.2-.6 0-1.2.1-1.8.2-1.2-1.9-5.4-7.6-8.1-10.4h-1.2v2.3c0 2.7.1 5.4.2 8.1-.5-.1-1-.2-1.5-.2s-1 .1-1.5.2c.1-2.7.2-5.4.2-8.1zm2.6 1.8c.6.1 1.3.2 2.1.2 2.6 0 6-1.1 6-4.8 0-3.3-2.7-4.1-4.8-4.1-1.4 0-2.4.1-3 .2-.1 2.3-.2 4.5-.2 6.8v1.7z"/><path d="m266.8 34.6c.7 1.5 2.2 3.2 4.9 3.2 2.8 0 4.5-2 4.5-4.5 0-5.7-9.8-3.3-9.8-10.6 0-3.5 2.6-5.9 6.8-5.9 2 0 3.4.5 4.6 1.5-.4.7-.6 1.4-.8 2.6h-.4c-.4-1.2-1.4-2.9-3.7-2.9s-4 1.6-4 3.9c0 5.8 9.8 3.4 9.8 10.3 0 3.8-2.8 7-7.6 7-2.6 0-4.1-.9-5.1-1.8.4-1 .5-1.6.6-2.8z"/><path d="m285.6 25.3c0-2.7-.1-5.4-.2-8.1.5.1 1 .2 1.5.2s1-.1 1.5-.2c-.1 2.7-.2 5.4-.2 8.1v5.4c0 2.7.1 5.4.2 8.1-.5-.1-1-.2-1.5-.2s-1 .1-1.5.2c.1-2.7.2-5.4.2-8.1z"/><path d="m142.5 57.1c0-2.7-.1-5.4-.2-8.1 1 .1 2 .2 3 .2s3-.2 3.9-.2c1.9 0 6.8.1 6.8 5.3 0 5.5-5.4 6.5-8.4 6.5-.9 0-1.7 0-2.5-.1v1.7c0 2.7.1 5.4.2 8.1-.5-.1-1-.2-1.5-.2s-1 .1-1.5.2c.1-2.7.2-5.4.2-8.1zm2.6 2.3c.7.2 1.5.2 2.2.2 2.6 0 5.8-1 5.8-5.2 0-3.6-2-4.3-5.2-4.3h-2.8z"/><path d="m171.1 48.6c6.9 0 11.7 4.1 11.7 11.2s-4.8 11.2-11.7 11.2-11.7-4.1-11.7-11.2 4.9-11.2 11.7-11.2zm0 1.2c-4.9 0-8.6 3.1-8.6 10s3.7 10 8.6 10 8.6-3.1 8.6-10-3.7-10-8.6-10z"/><path d="m188 57.1c0-2.7-.1-5.4-.2-8.1.5.1 1 .2 1.5.2s1-.1 1.5-.2c-.1 2.7-.2 5.4-.2 8.1 0 5.2.1 8.9.1 12 2.9 0 5.5 0 8.6-.4-.1.3-.2.6-.2.9s.1.6.2.9c-1.9-.1-3.8-.2-5.7-.2s-3.8.1-5.8.2c.1-2.7.2-5.4.2-8.1z"/><path d="m205 57.1c0-2.7-.1-5.4-.2-8.1.5.1 1 .2 1.5.2s1-.1 1.5-.2c-.1 2.7-.2 5.4-.2 8.1v5.4c0 2.7.1 5.4.2 8.1-.5-.1-1-.2-1.5-.2s-1 .1-1.5.2c.1-2.7.2-5.4.2-8.1z"/><path d="m219.6 57.1c0-2.2 0-4.3-.1-6.5-2.1 0-4.9.1-6.7.3.1-.3.2-.7.2-1s-.1-.6-.2-1c2.7.1 5.4.2 8 .2 2.7 0 5.4-.1 8-.2-.1.3-.2.7-.2 1s.1.7.2 1c-1.7-.2-4.5-.3-6.7-.3-.1 2.2-.1 4.3-.1 6.5v5.4c0 2.7.1 5.4.2 8.1-.5-.1-1-.2-1.5-.2s-1 .1-1.5.2c.1-2.7.2-5.4.2-8.1z"/><path d="m266.9 69.1c-.8.6-3.4 1.8-6.5 1.8-6.6 0-11.4-4.1-11.4-11.2s4.8-11.2 11.7-11.2c2.7 0 5.1.7 6.8 1.4-.3.6-.5 1.8-.7 2.4l-.2.1c-.9-1-3-2.8-5.9-2.8-4.9 0-8.6 3.1-8.6 10s3.7 10 8.6 10c3 0 5.1-1.7 6.3-2.6l.1.1z"/><path d="m290.5 70.9c-4.7-5.6-10.4-11.6-15.7-17.2 0 1.2-.1 3-.1 6.3 0 2.7.1 9.3.3 10.5-.3-.1-.7-.2-1.1-.2s-.7.1-1.2.2c.2-1.5.7-9.4.7-13.6 0-3.9 0-7-.1-8.4h.5c5.1 5.5 12 13 15.8 16.9 0-5.6 0-11.7-.2-16.5.3.1.7.2 1.1.2s.7-.1 1-.2c-.2 1.8-.5 8-.5 10.4 0 3.2.1 10.1.1 11.5h-.6z"/><path d="m298.1 57.1c0-2.7-.1-5.4-.2-8.1.5.1 1 .2 1.5.2s1-.1 1.5-.2c-.1 2.7-.2 5.4-.2 8.1v5.4c0 2.7.1 5.4.2 8.1-.5-.1-1-.2-1.5-.2s-1 .1-1.5.2c.1-2.7.2-5.4.2-8.1z"/><path d="m324.3 69.1c-.8.6-3.4 1.8-6.5 1.8-6.6 0-11.4-4.1-11.4-11.2s4.8-11.2 11.7-11.2c2.7 0 5.1.7 6.8 1.4-.3.6-.5 1.8-.7 2.4l-.2.1c-.9-1-3-2.8-5.9-2.8-4.9 0-8.6 3.1-8.6 10s3.7 10 8.6 10c3 0 5.1-1.7 6.3-2.6l.1.1z"/><path d="m142.8 88.9c0-2.7-.1-5.4-.2-8.1 1.6.1 3.1.2 4.7.2s3.1-.2 4.7-.2c7.3 0 10.3 3.9 10.3 10.3 0 8.3-6.4 11.2-11.3 11.2-1.4 0-2.8-.2-4.2-.2s-2.8.1-4.2.2c.1-2.7.2-5.4.2-8.1zm2.5 5.3c0 2.2.1 4.5.2 6.6.9.2 2.5.3 4.1.3 4.6 0 9.6-1.8 9.6-10 0-7.2-3.7-9-8.9-9-1.8 0-3.5.2-4.8.3-.1 2-.2 4.2-.2 6.5z"/><path d="m166.2 88.8c0-2.7-.1-5.4-.2-8 1.9.1 3.7.2 5.6.2s3.7-.1 5.5-.2c-.1.3-.1.6-.1.9s0 .6.1.9c-2.6-.2-4.1-.4-8.2-.4 0 1.3-.1 2.4-.1 4v4.1c3.7 0 5.7-.2 7.6-.3-.1.3-.1.7-.1 1s0 .6.1.9c-2.2-.2-6.1-.3-7.6-.3v4.5c0 2.4 0 3.9.1 4.7 2.8 0 6.5 0 8.4-.4-.1.3-.1.7-.1 1s0 .6.1.9c-1.8-.1-3.7-.2-5.6-.2s-3.8.1-5.7.2c.1-2.7.2-5.4.2-8.1z"/><path d="m197.4 80.8c.5.1 1.1.2 1.6.2s1.1-.1 1.6-.2c1.8 5.5 4.5 12.1 7.1 18.4 2.3-5.1 5.8-14.3 7.1-18.4.4.1.8.2 1.2.2s.8-.1 1.2-.2c-3.2 7.2-6.2 14.3-9 21.5-.3-.1-.7-.2-1-.2s-.7.1-1 .2c-2-5.1-5.8-14.3-8.8-21.5z"/><path d="m240.9 88.9c0-2.7-.1-5.4-.2-8.1.5.1 1 .2 1.5.2s1-.1 1.5-.2c-.1 2.7-.2 5.4-.2 8.1 0 5.2.1 8.9.1 12 2.9 0 5.5 0 8.6-.4-.1.3-.2.6-.2.9s.1.6.2.9c-1.9-.1-3.8-.2-5.7-.2s-3.8.1-5.8.2c.1-2.7.2-5.4.2-8.1z"/><path d="m291.7 102.7c-4.7-5.6-10.4-11.6-15.7-17.2 0 1.2-.1 3-.1 6.3 0 2.7.1 9.3.3 10.5-.3-.1-.7-.2-1.1-.2s-.7.1-1.2.2c.2-1.5.7-9.4.7-13.6 0-3.9 0-7-.1-8.4h.5c5.1 5.5 12 13 15.8 16.9 0-5.6 0-11.7-.2-16.5.3.1.7.2 1.1.2.3 0 .7-.1 1-.2-.2 1.8-.5 8-.5 10.4 0 3.2.1 10.1.1 11.5z"/><path d="m315 100.9c-.8.6-3.4 1.8-6.5 1.8-6.6 0-11.4-4.1-11.4-11.2s4.8-11.2 11.7-11.2c2.7 0 5.1.7 6.8 1.4-.3.6-.5 1.8-.7 2.4l-.2.1c-.9-1-3-2.8-5.9-2.8-4.9 0-8.6 3.1-8.6 10s3.7 10 8.6 10c3 0 5.1-1.7 6.3-2.6l.1.1z"/><path d="m320.5 88.9c0-2.7-.1-5.4-.2-8.1.5.1 1 .2 1.5.2s1-.1 1.5-.2c-.1 2.7-.2 5.4-.2 8.1v5.4c0 2.7.1 5.4.2 8.1-.5-.1-1-.2-1.5-.2s-1 .1-1.5.2c.1-2.7.2-5.4.2-8.1z"/><path d="m332.5 67.8c0-1.4 1.1-2.4 2.4-2.4s2.4 1.1 2.4 2.4-1.1 2.4-2.4 2.4c-1.3.1-2.4-1-2.4-2.4z"/><path d="m341 61.9-3.9-9.4-4 9.4c-1.3 3.2-2.5 6.4-3 8.4-.4-.1-.8-.2-1.2-.2s-.7.1-1.2.2c3.3-7.3 6.6-14.6 9.8-21.9h.6c3.1 7.2 7.7 18.6 9.4 21.9-.6-.1-1.1-.2-1.7-.2s-1.1.1-1.7.2c-.5-2.2-2-5.6-3.1-8.4z"/><path d="m332.6 99.7c0-1.4 1.1-2.4 2.4-2.4 1.4 0 2.4 1.1 2.4 2.4 0 1.4-1.1 2.4-2.4 2.4s-2.4-1.1-2.4-2.4z"/><path d="m341.1 93.7-3.9-9.4-4 9.4c-1.3 3.2-2.5 6.4-3 8.4-.4-.1-.8-.2-1.2-.2s-.7.1-1.2.2c3.3-7.3 6.6-14.6 9.8-21.9h.6c3.1 7.2 7.7 18.6 9.4 21.9-.6-.1-1.1-.2-1.6-.2-.6 0-1.1.1-1.7.2-.6-2.2-2.1-5.6-3.2-8.4z"/><path d="m221.8 99.7c0-1.4 1.1-2.4 2.4-2.4s2.4 1.1 2.4 2.4c0 1.4-1.1 2.4-2.4 2.4s-2.4-1.1-2.4-2.4z"/><path d="m230.2 93.7-3.9-9.4-4 9.4c-1.3 3.2-2.5 6.4-3 8.4-.4-.1-.8-.2-1.2-.2s-.7.1-1.2.2c3.3-7.3 6.6-14.6 9.8-21.9h.6c3.1 7.2 7.7 18.6 9.4 21.9-.6-.1-1.1-.2-1.6-.2-.6 0-1.1.1-1.7.2-.5-2.2-2-5.6-3.2-8.4z"/><path d="m300.5 25.5c0-2.2 0-4.3-.1-6.5-2.2 0-4.9.1-6.7.3.1-.3.2-.7.2-1s-.1-.6-.2-1c2.7.1 5.4.2 8 .2 2.7 0 5.4-.1 8-.2-.1.3-.2.7-.2 1s.1.7.2 1c-1.7-.2-4.5-.3-6.7-.3-.1 2.2-.1 4.3-.1 6.5v5.4c0 2.7.1 5.4.2 8.1-.5-.1-1-.2-1.5-.2s-1 .1-1.5.2c.1-2.7.2-5.4.2-8.1v-5.4z"/><path d="m338.2 25.5c0-2.2 0-4.3-.1-6.5-2.1 0-4.9.1-6.7.3.1-.3.2-.7.2-1s-.1-.6-.2-1c2.7.1 5.4.2 8 .2 2.7 0 5.4-.1 8-.2-.1.3-.2.7-.2 1s.1.7.2 1c-1.7-.2-4.5-.3-6.7-.3-.1 2.2-.1 4.3-.1 6.5v5.4c0 2.7.1 5.4.2 8.1-.5-.1-1-.2-1.5-.2s-1 .1-1.5.2c.1-2.7.2-5.4.2-8.1v-5.4z"/><path clip-rule="evenodd" d="m265.3 79-4-3.9c-.4-.4-.8-.8-1.2-1.1-.1-.1-.3-.2-.4-.2-.5-.1-1.1.2-1.3.7-.1.3-.1.6 0 .8.2.3.5.5.8.7l5 3.1zm-5.3 3.3h2.4l3.2.1c.9.1 1.9.2 2.8.3 0-.3-.1-.6-.1-.9s.1-.6.1-.9h-11.2v21.4h11.4c0-.3-.1-.6-.1-.9s.1-.6.1-.9c-1 .2-1.9.3-2.9.3-1.9.1-3.8.2-5.7.1v-9.2h4.9c1 0 1.9.1 2.8.2 0-.3-.1-.6-.1-.9s.1-.6.1-.8c-1 0-1.9.2-2.8.2h-4.9z" fill-rule="evenodd"/><path clip-rule="evenodd" d="m241.5 47.3-4-3.9c-.4-.4-.8-.8-1.2-1.1-.1-.1-.3-.2-.4-.2-.5-.1-1.1.2-1.3.7-.1.3-.1.6 0 .8.2.3.5.5.8.7l5 3.1zm-5.3 3.3h2.4l3.2.1c.9.1 1.9.2 2.8.3 0-.3-.1-.6-.1-.9s.1-.6.1-.9h-11.2v21.4h11.4c0-.3-.1-.6-.1-.9s.1-.6.1-.9c-1 .2-1.9.3-2.9.3-1.9.1-3.8.2-5.7.1v-9.2h4.9c1 0 1.9.1 2.8.2 0-.3-.1-.6-.1-.9s.1-.6.1-.8c-.9 0-1.9.2-2.8.2h-4.9z" fill-rule="evenodd"/><path d="m315.7 36.1c0-1.4 1.1-2.4 2.5-2.4s2.5 1.1 2.5 2.4c0 1.4-1.1 2.4-2.5 2.4-1.4.1-2.5-1-2.5-2.4zm4.5-19.3h.6l9 20.7.5 1.1c-.5-.1-1.1-.1-1.6-.1-.6 0-1.2 0-1.7.1l-.3-.9-1.4-3.8-1.5-3.7-4-9.5-4 9.5c-1.1 2.8-2.2 5.5-3.1 8.4-.3-.1-.7-.1-1.1-.1s-.8 0-1.2.1z"/></g></svg>