<svg xmlns="http://www.w3.org/2000/svg" viewBox="0 0 789 249.69"><defs><style>.cls-1{isolation:isolate;}.cls-2{mix-blend-mode:hard-light;}.cls-3,.cls-4{fill:#222221;}.cls-4{fill-rule:evenodd;}</style></defs><g class="cls-1"><g id="Capa_2" data-name="Capa 2"><g id="Modo_de_aislamiento" data-name="Modo de aislamiento"><g class="cls-2"><path class="cls-3" d="M80.91,82.81c-.71-1.74.36-4.09.36-4.09,1.29-.4,3.68-.15,4.39,1.51s0,3.35-2.07,4.59a7.47,7.47,0,0,1-2.68-2Z"/><polygon class="cls-3" points="142.12 187.27 129.48 197.34 129.41 93.39 142.12 93.39 142.12 187.27 142.12 187.27"/><path class="cls-3" d="M150.26,178.2l0-84.81h10.3l.1,64.71a73.83,73.83,0,0,1-10.44,20.1Z"/><polygon class="cls-3" points="108.7 188.23 121.51 198.3 121.51 93.39 108.7 93.39 108.7 188.23 108.7 188.23"/><path class="cls-3" d="M101.53,181.14l-.08-87.75H90.08v69.07c.44,4.66,8.76,16.47,11.45,18.68Z"/><path class="cls-3" d="M124.85,211.63a86.79,86.79,0,1,1,86.79-86.78,86.89,86.89,0,0,1-86.79,86.78v3.07A89.86,89.86,0,1,0,35,124.85a90,90,0,0,0,89.86,89.85v-3.07Z"/><path class="cls-3" d="M124.85,245.71A120.87,120.87,0,1,1,245.73,124.85,121,121,0,0,1,124.85,245.71v4A124.85,124.85,0,1,0,0,124.85,125,125,0,0,0,124.85,249.69v-4Z"/><path class="cls-3" d="M21.93,160.23a21.59,21.59,0,0,1,5.6,8,21.64,21.64,0,0,1,1.8,8.53L35.51,174a25.95,25.95,0,0,1-7.27-16.63l-6.31,2.84Z"/><path class="cls-3" d="M21.53,173.91a20.83,20.83,0,0,1,8-5.6,22.63,22.63,0,0,1,8.53-1.8l-2.74-6.18a23.7,23.7,0,0,1-7.22,4.93,24,24,0,0,1-9.41,2.34l2.84,6.31Z"/><path class="cls-3" d="M227.52,160.23a23.1,23.1,0,0,0-7.4,16.53L213.94,174a24,24,0,0,0,4.94-7.22,24.25,24.25,0,0,0,2.33-9.41l6.31,2.84Z"/><path class="cls-3" d="M227.92,173.91a20.72,20.72,0,0,0-8-5.6,22.67,22.67,0,0,0-8.53-1.8l2.74-6.18a26.08,26.08,0,0,0,16.63,7.27l-2.84,6.31Z"/><path class="cls-3" d="M76.14,211.37c1.62-.89,2.41-.08,2.82-.6s0-.56-.5-.9c-.61-.48-1.27-.86-1.88-1.33s-1.15-1-1.78-1.53c-.25-.2-.82-.76-1.16-.33-.62.8,2.2,1.65.55,3.78a8.69,8.69,0,0,1-2.77,2.13l-8.32,4.58c-.19.11-.52.36-.65.26s0-.51.07-.72l2.9-9.46A12.25,12.25,0,0,1,67,203.49c.74-1,1.76.4,2.24-.21.3-.39.18-.45-.51-1-.34-.26-1-.66-2.41-1.73-.73-.58-1.39-1.24-2.1-1.79-.33-.24-.85-1-1.28-.42-.12.18.05.52.1.6a2.33,2.33,0,0,1,.49,2.56l-4.94,17.34c-.35,1.25-.32,1.64-.1,1.82s.45.13,1.15-.27l16.46-9Z"/><path class="cls-3" d="M97.75,220.32c.53-2.12,2.15-.62,2.41-1.68.09-.33,0-.4-.6-.54s-.77-.07-3-.63c-1-.26-2.52-.74-3.57-1-.56-.14-.9,0-1,.27-.24,1,2.93,1,2.35,3.32l-3.29,13.17c-.84,3.41-2.48,1.4-2.8,2.68,0,.17.08.35.43.44,1.45.36,2.58.52,3.41.72,1.32.33,2.88.85,6.9,1.84,2.17.54,4.3-1.35,4.85-3.52.13-.53,0-.66-.14-.68-1-.25-1.55,3.48-8.11,1.85-1.9-.47-1.55-1.46-1.12-3.18l3.26-13.05Z"/><path class="cls-3" d="M113.55,223.66c.14-2,.25-2,3.54-1.76,5.25.36,2.89,3.57,4.17,3.65.62,0,.56-.91.56-1.28l.08-2.84a.52.52,0,0,0-.49-.58c-2.4-.17-4.29-.19-6.22-.32-4.16-.3-6.11-.55-7.22-.63-.39,0-.62.2-.63.45-.09,1.14,3,.45,2.87,3l-.93,13.4c-.25,3.49-2.21,1.81-2.3,3.12,0,.17.14.33.49.35,1.5.1,2.65.07,3.49.13,1.36.1,3,.32,7.12.61,2.23.16,4-2.08,4.16-4.31,0-.55-.16-.64-.26-.65-1-.08-.91,3.7-7.66,3.23-2-.14-1.78-1.16-1.65-2.93l.25-3.67c.12-1.66,0-2,1.29-1.92l2,.14c2.82.2,1.85,3.18,2.72,3.24.66,0,.57-1,.57-1.38l.16-5.1c0-.77-.28-.74-.47-.75-.54,0-.81,2.59-3.15,2.42l-1.71-.12c-1.17-.07-1.16-.28-1.07-1.51l.28-4Z"/><path class="cls-3" d="M128.09,237.44c.26,2.92-2.39,2.63-2.29,3.77,0,.49.57.3.87.27.73-.06,1.45-.24,2.33-.32s1.88,0,3.21-.16c.35,0,1-.06,1-.46-.12-1.34-3.43.9-3.9-4.59l-.86-9.72c0-.26,0-.46.18-.48s.31.12.52.34l14.37,13.72a.79.79,0,0,0,.74.34c.33,0,.31-.26.25-.89l-1.4-16c-.26-3,2.1-2.52,2-3.39,0-.08,0-.37-.54-.33-.25,0-1.19.22-2.9.38-1.87.16-2.67.12-3.1.16a.43.43,0,0,0-.4.52c.09.94,3.35.14,3.58,2.74l.83,9.52c.07.71.05,1.06-.12,1.08s-.52-.31-.91-.66l-12-11.67c-.54-.49-.23-.72-1.11-.65-1.43.13-2.13.31-2.83.36-.52.05-1,0-1.54,0a.43.43,0,0,0-.41.52c.11,1.37,3-.75,3.47,4.74l1,10.86Z"/><path class="cls-3" d="M161.82,215.46c0-.14-.24-.11-.37-.07-.36.11-.11,1-.61,1.18-.78.24-3.3-.82-6.45.14-6.57,2-7.4,8.89-6,13.5.66,2.17,4,8.83,11.62,6.49,5.56-1.68,7-6.68,6.71-7.77,0-.17-.33-.23-.46-.19-.67.21-1.35,4.35-5.39,5.58-5,1.52-8.73-3.28-9.91-7.15-1.12-3.67-.18-8.16,3.65-9.33,3-.92,6,.76,8.15,3,.3.3.66.81,1.07.7s.15-.74,0-1l-2.06-5.07Z"/><path class="cls-3" d="M169.68,213.74c-1.29-2.41,1-2.46.54-3.32-.16-.31-.3-.29-1,.09-1.37.73-2.18,1.29-3,1.76s-1.84.84-2.78,1.34c-.22.12-.86.35-.63.79.47.89,2.81-1.27,4,1l6.46,12.16c1.28,2.41-.8,2.67-.33,3.55a.3.3,0,0,0,.43.16c.63-.32,1.6-1,2.64-1.53,1.88-1,2.82-1.37,3.72-1.84.55-.3.71-.52.56-.8-.42-.8-2.5,1.8-4.16-1.32l-6.42-12.08Z"/><path class="cls-3" d="M13.62,113.18c-1.63-.78-1.39-1.71-2-1.77-.49-.06-.43.27-.48.76-.06.65,0,1.3-.08,1.94s-.24,1.29-.31,2c0,.27-.18.93.36,1,1,.09.18-2.33,2.87-2a9.7,9.7,0,0,1,3.32,1.06l8.39,4c.2.09.6.22.58.36s-.42.22-.64.26l-9.52,2.06a14.78,14.78,0,0,1-4.06.48c-1.19-.13-.63-1.46-1.4-1.54-.49,0-.48.07-.55.81,0,.36,0,1-.13,2.51-.09.78-.28,1.55-.35,2.3,0,.35-.33,1,.35,1.1.2,0,.41-.25.44-.32.39-.91.73-1.2,1.89-1.49l17.26-4c1.25-.29,1.55-.49,1.57-.71s-.12-.39-.85-.72l-16.61-8Z"/><path class="cls-3" d="M27.27,111.35c2.85.66,1.85,2.69,3,2.94.47.11.44-.37.5-.61.14-.6.16-1.23.32-2s.47-1.52.73-2.62c.07-.28.22-.84-.17-.92-1.32-.31-.07,3-5.44,1.75l-9.51-2.2c-.25,0-.44-.14-.41-.28s.2-.21.46-.32l17-7.4c.26-.1.46-.18.53-.48s-.16-.33-.78-.47L17.81,95.17c-2.94-.68-1.83-2.42-2.67-2.62-.08,0-.36-.08-.46.34,0,.2-.12,1-.44,2.42s-.62,2.17-.71,2.52.21.43.4.47c.92.22,1.05-2.63,3.59-2l9.32,2.15c.7.16,1,.28,1,.42s-.43.32-.88.52l-14.42,6.14c-.62.29-.76,0-.92.69-.26,1.18-.29,1.79-.42,2.37-.11.42-.31.8-.41,1.23-.06.27.14.43.39.49,1.34.31.11-2.62,5.47-1.37l10.63,2.45Z"/><path class="cls-3" d="M19.87,87.24c-2.58-.85-1.07-2.16-2-2.46-.32-.11-.42,0-.63.64-.41,1.24-.55,2.06-.81,2.85s-.63,1.57-.91,2.43c-.06.2-.32.71.14.87,1,.3,1-2.41,3.49-1.6l13.09,4.25c2.6.84,1.37,2.19,2.33,2.5.14,0,.34.06.4-.14.19-.56.38-1.54.69-2.48.55-1.7.93-2.48,1.19-3.28.16-.5.11-.74-.19-.83-.87-.29-.4,2.56-3.76,1.48l-13-4.23Z"/><path class="cls-3" d="M26.33,70.92C25,69.67,25.55,68.86,25,68.59c-.45-.19-.5.13-.7.58s-.41,1.22-.68,1.8-.63,1.15-.9,1.76c-.11.25-.47.83,0,1,.91.41.88-2.14,3.35-1a9.63,9.63,0,0,1,2.8,2l6.69,6.42c.15.15.48.4.42.52s-.47.07-.67,0l-9.66-1a14.22,14.22,0,0,1-4-.82c-1.1-.48-.14-1.57-.85-1.89-.45-.19-.47-.08-.76.6-.16.33-.32,1-.92,2.33-.31.71-.74,1.38-1.05,2.07-.14.31-.63.87,0,1.15.19.08.47-.12.52-.17a2.15,2.15,0,0,1,2.25-.81l17.58,1.57c1.27.12,1.62,0,1.72-.19s0-.4-.59-.94L26.33,70.92Z"/><path class="cls-3" d="M31.16,65c-1.66-1.07-1.64-1.17-.12-3.49,2.41-3.72,4.25-.39,4.84-1.29.28-.45-.57-.87-.9-1l-2.43-1.47a.51.51,0,0,0-.71.09c-1.09,1.69-1.86,3.08-2.75,4.45-1.91,3-2.91,4.27-3.42,5.06a.47.47,0,0,0,.13.69c1,.62,1.6-2,3.77-.65l11.27,7.32c2.93,1.91.68,2.53,1.79,3.24.14.1.34.06.5-.19.69-1.06,1.13-1.93,1.51-2.53.62-1,1.47-2.06,3.37-5,1-1.58-.21-4-2.09-5.22-.46-.29-.61-.21-.66-.13-.49.73,2.85,2.51-.25,7.29-.9,1.38-1.72.74-3.21-.22l-3.08-2c-1.4-.91-1.74-1-1.16-1.91l.92-1.42c1.3-2,3.51.19,3.91-.43.29-.46-.65-.91-1-1.09L37,62.38c-.65-.4-.74-.16-.83,0-.25.38,1.92,1.88.85,3.53l-.79,1.22c-.54.83-.71.72-1.74,0L31.16,65Z"/><path class="cls-3" d="M59.76,53.93c.53.45.66.64,1.21.41,1.26-.57,2.6-.8,3.67-1.7,2.31-1.93,2.29-5.24-.13-8.13s-4.3-2.76-7.05-2.21C54,43,52.81,43.5,51.57,42s-1.13-3,0-4c3-2.54,6.72,1.33,7.12,1s.22-.63-.22-1.08l-2.66-2.78c-.47-.48-.68-.86-.95-.63s-.38.9-.61,1.1c-.52.44-2,.21-3.42,1.41-2.06,1.73-1.92,4.76.21,7.28,1.93,2.32,3.69,2.3,5.91,1.87,4.14-.82,5.48-1.46,7,.4s1.32,3.7-.06,4.86c-2,1.64-4.71.55-7.05-1.09-.31-.23-.51-.4-.79-.16-.44.37.26.86.58,1.12l3.07,2.56Z"/><path class="cls-3" d="M62.76,32.2C61.2,30,63.2,29.83,62.64,29c-.2-.28-.32-.27-.89.13-1.07.75-1.68,1.32-2.35,1.79s-1.46.88-2.2,1.4c-.17.12-.69.37-.41.77.58.83,2.24-1.32,3.74.82l7.9,11.29c1.56,2.23-.22,2.56.36,3.39.08.11.24.25.41.14.49-.35,1.23-1,2-1.57,1.46-1,2.23-1.43,2.92-1.91.43-.3.53-.52.35-.77-.53-.76-1.87,1.79-3.9-1.09L62.76,32.2Z"/><path class="cls-3" d="M142.59,14.83c.23-1.28.69-1.78,1.71-1.6,3.5.62,3,4.78,2.82,5.51s-.91,3.89-3.65,3.41a8.3,8.3,0,0,1-1-.36c-.28-.05-.38.28-.41.48s0,.84,2.18,1.23c2.68.48,5.17-1.3,5.8-4.83.73-4.13-1.83-6-4.73-6.49-1.62-.25-3.24-.45-3.56-.51-1.71-.3-2.93-.63-3.09-.66a.56.56,0,0,0-.73.42c-.19,1.05,2.37.31,1.84,3.3l-2.2,12.44c-.61,3.53-2.31,2.59-2.45,3.41a.39.39,0,0,0,.4.5c.12,0,1.88.22,2.79.38.5.09,1.47.38,3.06.66.31.05.53.15.62-.33.17-1-2.3-.32-1.68-3.85l2.31-13.11Z"/><path class="cls-4" d="M161.65,16.08c-5.2-1.74-9.63,1.75-11.68,7.69-1.89,5.51-.22,10.18,4.14,11.69,6.92,2.38,10.53-3.81,11.84-7.61,2-5.75,0-10.37-4.3-11.77ZM162.92,28c-1.55,4.5-4,7.72-7.78,6.52s-3.33-7.4-2-11.37,3.72-7.3,7.42-6.12c2.82.91,4.39,5,2.32,11Z"/><path class="cls-3" d="M174.34,24.4c1-1.94,2-.26,2.45-1.23.16-.31.07-.39-.36-.61a24.09,24.09,0,0,1-2.36-1.07c-.78-.4-1.91-1.1-2.73-1.52-.43-.22-.76-.13-.87.1-.46.9,2.2,1.38,1.1,3.55l-6.17,12.1c-1.59,3.12-2.44,1-3,2.13-.07.14,0,.34.25.47,1.12.58,2,.91,2.67,1.24,1,.51,2.2,1.24,5.31,2.83,1.67.86,3.95-.63,5-2.62.24-.49.14-.64.06-.68-.78-.4-2.2,3.1-7.27.51-1.48-.74-.93-1.62-.12-3.21l6.11-12Z"/><path class="cls-3" d="M186.74,32.15c1.53-2.26,2.37-.44,2.93-1.25.18-.29.13-.4-.45-.79-1.08-.72-1.83-1.09-2.52-1.56s-1.34-1-2.08-1.54c-.18-.12-.61-.51-.88-.1-.55.83,2,1.61.58,3.78l-7.7,11.42c-1.52,2.26-2.48.71-3,1.55-.08.12-.16.31,0,.42.49.34,1.38.79,2.19,1.35,1.49,1,2.13,1.57,2.83,2,.44.29.68.31.85.05.51-.76-2.35-1.11-.38-4l7.65-11.34Z"/><path class="cls-3" d="M185.89,48.2c-2.11,2.7-3.3,0-4,.89-.38.5-.06.72.26,1,.73.57,1.4.94,2.61,1.89s1.73,1.5,2.46,2.07c.52.41.83.76,1.26.22s-2.34-1.79-.16-4.57l8-10.22c.85-1.09,1.12-1.06,1.86-.48l1.54,1.2c2.15,1.53-.39,3.6.33,4.16.48.36,1-.67,1.14-1l1.43-2.23c.16-.25.41-.56.14-.77-1.69-1.32-3-2.18-5.61-4.24s-3.78-3.1-5.47-4.41c-.27-.22-.52.1-.71.31l-2.63,2.76c-.26.27-.75.68-.38,1,.82.64,2.59-2.74,4.63-1.14l1.52,1.18c.74.58.84.83,0,1.92L185.89,48.2Z"/><path class="cls-3" d="M205.64,48.46c1.45-1.35,1.54-1.3,3.44.73,3,3.24-.66,4.22.07,5,.36.39,1-.34,1.24-.61l2-2a.49.49,0,0,0,.08-.71c-1.38-1.47-2.53-2.55-3.65-3.75-2.39-2.57-3.44-3.85-4.08-4.54a.48.48,0,0,0-.7,0c-.84.78,1.6,2.05-.29,3.82l-9.82,9.16c-2.56,2.38-2.62,0-3.58.95-.12.12-.14.32.07.53.86.93,1.59,1.56,2.08,2.08.79.83,1.64,1.92,4,4.47,1.29,1.38,3.93.77,5.57-.76.4-.37.35-.55.28-.62-.59-.63-3.12,2.17-7-2-1.13-1.21-.31-1.84,1-3.06l2.69-2.5c1.21-1.14,1.41-1.44,2.12-.67l1.16,1.24c1.63,1.75-1,3.35-.53,3.89s1-.4,1.29-.67l3.63-3.61c.56-.54.33-.68.23-.8-.32-.34-2.29,1.41-3.64,0l-1-1.06c-.68-.72-.52-.86.38-1.7l2.93-2.74Z"/><path class="cls-3" d="M222.64,66.26c.12-.07.05-.23,0-.32-.18-.27-1,.24-1.22-.12-.39-.57.08-3-1.48-5.32-3.23-4.79-9.81-3.21-13.81-.51-1.88,1.27-7.39,6.23-3.63,11.81,2.74,4,7.69,3.65,8.63,3a.38.38,0,0,0,.09-.45c-.34-.49-4.32.32-6.31-2.63-2.45-3.64,1.22-8.34,4.58-10.6,3.19-2.15,7.56-2.86,9.45-.06,1.49,2.21.55,5.28-1.1,7.77-.21.34-.62.81-.42,1.12s.71-.12.94-.31l4.29-3.39Z"/><path class="cls-3" d="M211.15,77.59c-2.66,1.24-3.12-1-4.16-.49-.44.21-.11.56,0,.79.26.56.62,1.08.94,1.74s.57,1.48,1,2.51c.12.27.34.8.7.63,1.23-.57-1.78-2.41,3.2-4.74l8.86-4.12c.23-.11.43-.16.49,0s0,.29-.16.54l-8.87,16.31a.7.7,0,0,0-.11.71c.12.25.33.15.9-.12l14.59-6.8c2.73-1.27,2.94.79,3.71.42.08,0,.34-.16.16-.55-.09-.18-.53-.87-1.14-2.18s-.85-2.08-1-2.42-.42-.21-.6-.12c-.86.4.79,2.72-1.57,3.82l-8.67,4c-.65.3-1,.41-1,.28s.13-.52.38-1l7.56-13.71c.31-.61.62-.45.31-1.11-.52-1.1-.88-1.6-1.13-2.14-.18-.39-.25-.81-.43-1.21a.42.42,0,0,0-.61-.15c-1.25.58,1.53,2.13-3.47,4.45l-9.88,4.61Z"/><path class="cls-3" d="M231.64,92.73c2.59-.84,2.14,1.12,3.07.82.33-.11.35-.24.14-.89-.41-1.25-.77-2-1-2.78s-.41-1.65-.69-2.51c-.06-.19-.16-.77-.62-.61-1,.31.6,2.53-1.88,3.33l-13.1,4.26c-2.59.84-2.39-1-3.35-.65-.14,0-.31.15-.25.35.19.57.61,1.47.91,2.4.55,1.71.7,2.55,1,3.36.17.5.34.66.65.57.86-.29-1.18-2.32,2.17-3.41l13-4.24Z"/><path class="cls-3" d="M237.77,109.79c.15,0,.15-.19.13-.3-.06-.32-1-.18-1.08-.61-.12-.68,1.31-2.72.82-5.46-1-5.69-7.66-6.92-12.41-6.08-2.23.39-9.29,2.69-8.12,9.31.85,4.81,5.54,6.46,6.67,6.26a.37.37,0,0,0,.25-.37c-.1-.59-4.07-1.47-4.69-5-.76-4.31,4.51-7.11,8.5-7.82,3.79-.66,8.07.47,8.65,3.8.47,2.62-1.64,5-4.16,6.65-.34.22-.9.49-.83.85s.7.18,1,.1l5.3-1.35Z"/><path class="cls-3" d="M73.51,182.1c-.74.56-.78.52-1.66-.64-1.4-1.86.42-2.05.08-2.5-.17-.22-.48.09-.62.2l-1,.84a.26.26,0,0,0-.06.35c.64.84,1.19,1.48,1.7,2.16C73,184,73.51,184.7,73.8,185.1a.27.27,0,0,0,.35.08c.43-.33-.73-1.16.23-1.88l5-3.77c1.3-1,1.27.18,1.76-.19.06-.05.08-.15,0-.28-.41-.52-.75-.89-1-1.19-.36-.48-.75-1.1-1.85-2.55a2,2,0,0,0-2.75-.07c-.2.15-.17.24-.14.28.27.37,1.57-.83,3.37,1.56.52.7.11.95-.55,1.45l-1.37,1c-.63.47-.73.6-1.06.16l-.53-.72c-.76-1,.58-1.58.34-1.88s-.5.11-.64.23l-1.85,1.5c-.29.22-.18.31-.13.38s1.14-.51,1.77.31l.46.61c.31.41.23.46-.22.81l-1.5,1.13Z"/><path class="cls-3" d="M75.8,173.87c.88,0,1.26.55,1.5.36s0-.23-.14-.43-.51-.59-.74-.91-.37-.57-.73-1c-.14-.19-.23-.22-.31-.16-.37.29.56.93,0,1.36a2.16,2.16,0,0,1-1,.24l-1.75.08a2.66,2.66,0,0,1-.66,0,1.82,1.82,0,0,1,.19-.57l.72-1.91a1.32,1.32,0,0,1,.43-.69c.4-.31.66.33,1,.09.17-.13,0-.26-.06-.4l-.87-1.07c-.36-.45-.49-.73-.65-1-.3-.39-.4-.48-.54-.38s.23.6-.31,2l-1.23,3.24c-.14.35-.18.55-.35.67a1.84,1.84,0,0,1-.76.08l-2.49.08c-1.54.05-1.82-.71-2.07-.52s-.13.17,0,.34c.36.47.62.73.83,1s.38.58.71,1c0,0,.13.21.32.06s-.42-.83,0-1.18c.19-.14.41-.2,1.07-.22l1.73-.05c.15,0,.36,0,.42,0s0,.21-.07.32l-1,2.16a1.25,1.25,0,0,1-.26.39c-.39.29-.76-.29-1-.09-.05.05-.13.09,0,.31s.41.45,1,1.19.75,1.07.93,1.31.2.18.31.11c.39-.31-.46-.46.45-2.67l1-2.35a2.64,2.64,0,0,1,.34-.73,2,2,0,0,1,.64-.06l3.4,0Z"/><path class="cls-3" d="M112.12,51.05a2.72,2.72,0,1,1-2.71,2.72,2.71,2.71,0,0,1,2.71-2.72Z"/><path class="cls-3" d="M87.74,56.48A2.71,2.71,0,1,1,85,59.19a2.71,2.71,0,0,1,2.71-2.71Z"/><path class="cls-3" d="M168.09,66.74c-.66,1.55-1.36,1.79-3.93,1.33-2.14-.37-2.09-3.19-2-4.38l-3.61-1.06c-1.56,3.1-3.39,3.27-4.82,3.07-2.6-.36-2.72-4.66-2.58-7.2l-3.71-.75c-1.8,5.09-2.6,5.88-4.87,6.3A3,3,0,0,1,139.91,63a5.24,5.24,0,0,1-1.33-3.14,13.28,13.28,0,0,0,.18-1.68L135,57.56a7.66,7.66,0,0,0-.26,2A5.85,5.85,0,0,1,132.83,63a2.15,2.15,0,0,1-2,.37c-1.81-.47-4.2-1.93-4.2-9.08h-3.83c0,.22,0,.43,0,.64h0c0,5.14-1.25,7.67-4.19,8.44a2.28,2.28,0,0,1-2.12-.5,5.91,5.91,0,0,1-1.88-3.44,8.4,8.4,0,0,0-.14-1.66l-3.79.29a9.54,9.54,0,0,0,.09,1.6,5.74,5.74,0,0,1-1.54,3.58,2.58,2.58,0,0,1-2.38.86c-2.3-.43-3.43-1.47-5.21-6.46l-3.71.75c.16,2.65.07,7.14-2.34,7.47-1.34.18-2.94-.11-4.72-3.66l-3.62,1.06c.25,2.42-.69,4.76-2.06,5.11-2.43.61-2.43.61-3.56-1.34l-.33-.56L78,68.36l.31.53c1.75,3,3.08,4.32,7.79,3.13a6.35,6.35,0,0,0,4.31-4.12,6.88,6.88,0,0,0,5.69,1.69c1.9-.25,4-1.35,5-4.6a8.11,8.11,0,0,0,5,2.81A6.38,6.38,0,0,0,112,65.9a8.68,8.68,0,0,0,1-1.24,8,8,0,0,0,1.16,1.16A6.13,6.13,0,0,0,119.6,67a8.45,8.45,0,0,0,5.2-3.78,8.19,8.19,0,0,0,5,3.78,6,6,0,0,0,5.26-1,7,7,0,0,0,1.33-1.29,10,10,0,0,0,.65.81,6.69,6.69,0,0,0,6.2,2.25,7.59,7.59,0,0,0,4.83-2.68,6.22,6.22,0,0,0,5.12,4.37A7.64,7.64,0,0,0,159,68.12a5.87,5.87,0,0,0,4.53,3.72c2,.35,6.13,1.08,8.11-3.62l-3.52-1.48Z"/><path class="cls-3" d="M137,51.21a2.71,2.71,0,1,1-2.71,2.71A2.71,2.71,0,0,1,137,51.21Z"/><path class="cls-3" d="M161.71,56.16A2.71,2.71,0,1,1,159,58.87a2.71,2.71,0,0,1,2.71-2.71Z"/><polygon class="cls-3" points="87.79 80.14 90.67 77.37 94.2 78.71 91.49 81.45 87.79 80.14 87.79 80.14"/><path class="cls-3" d="M81.43,78c16.37-5.23,26.12-6.74,43.47-6.72,17.52,0,27.3,1.52,43.6,6.72a1.58,1.58,0,0,0,1.87-1.26,1.71,1.71,0,0,0-.77-2.19c-16.52-5.26-27-6.87-44.69-6.89s-28,1.6-44.58,6.89a1.67,1.67,0,0,0-.8,2.17A1.63,1.63,0,0,0,81.43,78Z"/><path class="cls-3" d="M84.92,88.54c1.48-.31,3-.66,4.61-1a141.25,141.25,0,0,1,35.2-4.2c14.06,0,23.6,1.91,35.68,4.34l4.46.89a1.53,1.53,0,0,0,1.69-1.43,1.75,1.75,0,0,0-1-2.11l-4.46-.9c-12.27-2.46-22-4.41-36.4-4.4a144,144,0,0,0-36,4.28c-1.6.37-3.1.71-4.55,1a1.78,1.78,0,0,0-1,2.12,1.59,1.59,0,0,0,1.73,1.42Z"/><polygon class="cls-3" points="109.87 75.95 113.08 73.62 116.66 75.5 113.37 77.8 109.87 75.95 109.87 75.95"/><path class="cls-3" d="M168.54,82.64c.71-1.74-.36-4.08-.36-4.08-1.29-.4-3.77-.19-4.39,1.51-.67,1.85,0,3.35,2.07,4.58a7.31,7.31,0,0,0,2.68-2Z"/><polygon class="cls-3" points="161.82 80.14 158.94 77.37 155.41 78.71 158.12 81.45 161.82 80.14 161.82 80.14"/><polygon class="cls-3" points="139.58 75.95 136.37 73.62 132.79 75.5 136.08 77.8 139.58 75.95 139.58 75.95"/><path class="cls-3" d="M153,78c.31-1.91-1.81-3.33-4.68-3.78s-5.4.22-5.71,2.13,1.73,3.3,4.59,3.76,5.51-.2,5.8-2.11Z"/><path class="cls-3" d="M188.7,87.46c.54-.33.88-.31,1.15.16,1,1.58-.75,2.74-1.07,2.92s-1.75.91-2.49-.33c-.14-.23-.17-.45-.23-.53s-.22-.05-.31,0-.31.26.29,1.27a2.56,2.56,0,0,0,3.74.71c1.76-1.06,1.61-2.7.79-4-.45-.73-.92-1.43-1-1.57-.48-.78-.76-1.38-.81-1.45a.28.28,0,0,0-.4-.15c-.45.27.69,1-.6,1.81l-5.33,3.2c-1.51.92-1.74-.07-2.09.14a.21.21,0,0,0-.05.33c0,.06.56.82.81,1.23.14.23.36.71.79,1.42.08.15.12.27.32.14.43-.25-.65-1,.86-1.92l5.63-3.38Z"/><path class="cls-3" d="M200.05,117.4c.22,0,.53-.07.5-.25s-.41-.16-.45-.42a7.78,7.78,0,0,0,.49-3.09c-.42-3-3.68-3.77-6-3.44-1.1.16-4.61,1.19-4.12,4.66a7.32,7.32,0,0,0,1.9,3.54c.08.1.16.1.37.07s.59-.12,1.16-.2c1.79-.25,1.16.67,1.76.59.13,0,.18-.1.17-.16-.06-.43-.17-.83-.23-1.27s-.11-1.11-.18-1.67c0-.2,0-.6-.38-.54s.62,1.35-1.56,1.66c-.81.11-2,.24-2.29-1.89-.28-1.91,2.16-3.1,4.08-3.37,3.54-.51,4.61.94,4.77,2,.43,3.12-2.61,3.55-2.59,3.81s.11.28.3.26l2.34-.33Z"/><path class="cls-3" d="M198.92,130.75c1,.1,1,.15.82,1.59-.24,2.29-1.79,1.2-1.84,1.75,0,.27.44.27.62.27l1.4.1a.24.24,0,0,0,.29-.21c.11-1.05.14-1.87.24-2.72.18-1.82.33-2.67.38-3.16a.24.24,0,0,0-.21-.28c-.56-.06-.26,1.33-1.52,1.19l-6.58-.68c-1.71-.19-.86-1-1.51-1.08-.08,0-.15.06-.18.21-.06.66-.06,1.16-.1,1.53-.06.59-.19,1.31-.38,3.12-.1,1,1,1.8,2.07,1.9.26,0,.32,0,.33-.09,0-.46-1.82-.48-1.51-3.43.1-.86.59-.76,1.46-.66l1.8.18c.82.09,1,.06.93.6l-.09.89c-.12,1.23-1.58.74-1.63,1.12s.49.27.67.28l2.52.18c.38,0,.37-.11.38-.19,0-.24-1.27-.41-1.17-1.43l.08-.75c.06-.51.15-.51.76-.44l2,.21Z"/><path class="cls-3" d="M190.92,134.87c-.35,0-.46,0-.59.24a7.28,7.28,0,0,0-.9,1.89c-.31,1.54.72,2.86,2.54,3.21s2.5-.31,3.4-1.44c1.13-1.42,1.43-2,2.36-1.84a1.3,1.3,0,0,1,1.2,1.58c-.39,2-3,1.69-3.05,2s.11.33.41.36l1.88.24c.34,0,.53.11.57-.06s-.14-.5-.11-.65c.07-.35.71-.74.89-1.7.27-1.38-.71-2.54-2.31-2.85a2.58,2.58,0,0,0-2.85,1.21c-1.36,1.7-1.68,2.41-2.86,2.18a1.65,1.65,0,0,1-1.46-2c.25-1.3,1.65-1.78,3.07-1.9.18,0,.31,0,.35-.2s-.37-.26-.57-.26Z"/><path class="cls-3" d="M189.61,140.92c-.34-.06-.45-.1-.62.16a7.83,7.83,0,0,0-1.13,1.77c-.48,1.49.37,2.92,2.13,3.5s2.54,0,3.57-1c1.28-1.27,1.66-1.84,2.56-1.54a1.31,1.31,0,0,1,1,1.72c-.64,2-3.19,1.31-3.28,1.57s.07.34.37.41l1.84.46c.32.08.52.17.57,0s-.08-.5,0-.65c.11-.34.8-.65,1.09-1.58.44-1.34-.39-2.61-1.94-3.12a2.56,2.56,0,0,0-3,.87c-1.55,1.51-2,2.17-3.11,1.8a1.65,1.65,0,0,1-1.2-2.13c.41-1.25,1.86-1.57,3.27-1.51.19,0,.32,0,.37-.16s-.32-.3-.52-.32l-2-.24Z"/><path class="cls-3" d="M194,151.08c1.26.46.47,1.13.93,1.3.16.05.21,0,.33-.34.22-.63.32-1,.47-1.46s.35-.81.52-1.25c0-.1.18-.36-.05-.45-.47-.17-.56,1.23-1.77.8l-6.37-2.32c-1.26-.47-.62-1.15-1.09-1.32-.06,0-.17,0-.2.07-.1.29-.23.79-.41,1.28-.32.87-.52,1.27-.68,1.68s-.06.39.07.44c.43.16.28-1.33,1.92-.73l6.33,2.3Z"/><path class="cls-4" d="M190,151c-2.69-1-5-.12-5.87,2.14-1.29,3.59,1.7,5.46,3.56,6.13,2.82,1,5.14,0,5.92-2.23.95-2.7-.7-5-3.61-6Zm3.16,5.5c-.5,1.45-2.54,2.27-5.48,1.2-2.2-.8-3.75-2.09-3.09-4s3.73-1.73,5.66-1,3.56,1.93,2.91,3.85Z"/><path class="cls-3" d="M86.59,182a13.15,13.15,0,0,0-1.43-3.19A44.41,44.41,0,0,0,81,172.92c-.14-.16-.29-.36-.43-.54l2.31-2.59.24-.27.53-.35-.09-.13h0v0l-1.18-1.77a43.27,43.27,0,0,1-3.8-6.56,56,56,0,0,1-3.86-10.85h0l0-.06-1.47.37L69.6,151c-5.76-14.75-7.37-27.86-4.81-39.54L73,115l1,.41.27-1,3.84-14.6.35-.43-.21-.11h0l-.74-.38L73.84,97l1.56-7,.49-.61L75,88.88,59.1,78.67l-.49.77-.73-.52a78.63,78.63,0,0,0-14.09,43,76.51,76.51,0,0,0,12.7,44.7l.48.71.74-.44,5-3.07c.35.75,1,2.14,1.58,3.11a15.51,15.51,0,0,0,.92,1.36l-4.63,3,.5.77-.78.46.51.86c3.15,5.32,10.52,17.79,17.93,15.31a14.32,14.32,0,0,0,4.87-3,20.45,20.45,0,0,1,2.78-2l.63-.37-.24-.7-.22-.66Zm-7.18-11c-1-1.43-2.1-3-3.07-4.65l4.46,3.09-1.39,1.56Zm-7.27-18.66-.77,3.07c-.38-.87-.74-1.73-1.1-2.6l1.87-.47Zm.64-39.3-7.56-3.24q.19-.79.42-1.56l4.77.56.5.06.31-.39,4.1-5.1L72.78,113ZM66.2,106.4a50.44,50.44,0,0,1,6.57-12.91l-3,13.33-3.61-.42ZM75.66,100l-3.42,4.26,1.2-5.4L75.66,100ZM57.53,164.89A74.68,74.68,0,0,1,45.6,122,76.9,76.9,0,0,1,58.86,80.67l14.37,9.19c-14.19,18-15.17,40.08-3,67.33l-12.69,7.7Zm6.77-2,7.53-4.58.69-.42,0-.08.11,0,1.15-4.57a56.17,56.17,0,0,0,3.13,8.16,39.43,39.43,0,0,0,2.65,4.83l-5.14-3.56,0,0-.15-.28-.82.53-6.62,4.3a13.91,13.91,0,0,1-.87-1.29c-.58-1-1.29-2.5-1.58-3.12Zm18.19,21.45A12.65,12.65,0,0,1,78.2,187c-6,2-13.13-10-15.8-14.52l-.07-.12,11.21-7.29a71.4,71.4,0,0,0,6,9,40.36,40.36,0,0,1,4.07,5.64,11.52,11.52,0,0,1,1.26,2.82h0a25.53,25.53,0,0,0-2.38,1.83Zm123.17-62.42a78.63,78.63,0,0,0-14.09-43l-.73.52-.49-.77L174.41,88.88l-.85.55.5.61,1.55,7L172,98.88l-.73.38h-.05l-.2.11.34.42,3.85,14.61.27,1,1-.41,8.24-3.53c2.56,11.68,1,24.79-4.81,39.54l-3.56-.89-1.47-.37,0,.06h-.05a57.26,57.26,0,0,1-3.85,10.85,43.12,43.12,0,0,1-3.87,6.64l-1.22,1.85.08.06-.06,0,.75.84,2.19,2.45c-.12.15-.24.3-.35.46a33,33,0,0,1-3.67,4l-1.1,1.05c-1.6,1.23-2.53,2.85-2.36,4.13a2.08,2.08,0,0,0,1.35,1.68,20.22,20.22,0,0,0,2.8,1c.25.07.45.13.89.29l.09,0h.1l1.85.28c2.92.45,3.43.46,7.06-.62,6.84-2,10.89-11,11-11.56l-.89-.15.47-.77-3.24-2c.67-1,1.64-2.37,2.32-3.49a32.73,32.73,0,0,0,1.58-3.1l5,3.06.74.44.48-.71a76.51,76.51,0,0,0,12.7-44.7ZM176,98.82l1.2,5.41L173.79,100,176,98.82Zm.67-5.33a50.54,50.54,0,0,1,6.57,12.9l-3.61.43-3-13.33Zm0,19.46-2.55-9.68,4.11,5.11.31.39.5-.06,4.77-.56q.23.76.42,1.56L176.67,113Zm2.51,39.78c-.35.86-.72,1.72-1.09,2.59l-.78-3.06,1.87.47Zm-10.46,17,3.37-1.85a35,35,0,0,1-2.15,3.21l-1.22-1.36Zm15.72,3.79c-1.06,2.24-4.56,8.14-9.49,9.61-3.37,1-3.59,1-6.26.57l-1.78-.26a7.64,7.64,0,0,0-1-.31,23.16,23.16,0,0,1-2.59-.92c-.22-.09-.23-.18-.24-.25a3.73,3.73,0,0,1,1.72-2.5l0,0,0,0,1.12-1.07a32.4,32.4,0,0,0,3.82-4.19,40.94,40.94,0,0,0,4.57-6.72l10,6.11Zm-.86-7.53c-.67,1.1-1.66,2.54-2.32,3.47l-6.69-4.09-.76-.46,0,0h0v0l-4.58,2.53a42.59,42.59,0,0,0,3.42-6,56.17,56.17,0,0,0,3.13-8.16l1.15,4.57.11,0,0,.08.69.42,7.53,4.58a33.7,33.7,0,0,1-1.57,3.11Zm8.34-1.12-12.69-7.7c12.17-27.25,11.18-49.29-3-67.33l14.37-9.19A77,77,0,0,1,203.85,122a74.68,74.68,0,0,1-11.93,42.91Z"/><path class="cls-3" d="M130.22,75.4c0-1.93-2.26-3.05-5.16-3.1s-5.32,1-5.36,2.92,2.17,3,5.08,3.08,5.41-1,5.44-2.9Z"/><path class="cls-3" d="M96.29,78c-.3-1.91,1.81-3.33,4.67-3.78s5.42.22,5.72,2.13-1.73,3.3-4.6,3.76-5.49-.2-5.79-2.11Z"/><path class="cls-3" d="M62.74,151.91c1.43-.7,1.45.81,1.92.58.26-.13.16-.31.07-.5-.21-.43-.43-.77-.79-1.49s-.48-1.11-.69-1.54-.22-.55-.51-.41.69,1.38-.8,2.1l-5.44,2.66c-.57.28-.68.2-.9-.24l-.45-.93c-.66-1.22.84-1.52.64-2-.14-.28-.55.07-.69.16l-1,.66c-.12.07-.28.15-.21.32.49,1,.89,1.7,1.67,3.28s1.07,2.34,1.56,3.35c.08.16.25.07.38,0l1.67-.59c.17,0,.47-.12.36-.35-.24-.49-1.66.6-2.26-.62l-.44-.91c-.22-.44-.21-.58.37-.86l5.58-2.73Z"/><path class="cls-3" d="M53.29,145.49c-.89.24-.91.2-1.32-1.21-.64-2.23,1.13-1.76,1-2.29-.07-.27-.48-.09-.64,0l-1.26.42a.24.24,0,0,0-.18.3c.29,1,.57,1.8.8,2.62.51,1.78.69,2.63.83,3.1a.24.24,0,0,0,.3.19c.52-.15-.28-1.34.89-1.66l6-1.73c1.57-.46,1.13.63,1.73.46.07,0,.11-.11.07-.26-.19-.64-.38-1.11-.47-1.47-.18-.58-.32-1.29-.83-3a2,2,0,0,0-2.52-1.05c-.25.07-.27.16-.25.22.13.43,1.76-.21,2.59,2.66.23.83-.24.92-1,1.15l-1.64.47c-.75.21-.9.3-1.05-.23l-.24-.85c-.35-1.21,1.11-1.28,1-1.65s-.52-.07-.68,0l-2.28.74c-.33.11-.27.22-.25.31s1.26-.08,1.54.92l.22.73c.14.5,0,.52-.5.68l-1.81.53Z"/><path class="cls-3" d="M53.05,139.06a2.46,2.46,0,0,0,2.28-2.74,2.53,2.53,0,0,0-1.73-2c-.14,0-.15.1-.14.14s.82.66.93,1.37c.18,1.11-1.14,2-2.42,2.18-.82.12-1.8.07-1.94-.85-.11-.63.31-.91.92-1.16.09,0,.2-.07.18-.17s-.72-.81-1-.76c-.77.12-.82,1.25-.75,1.65a3,3,0,0,0,3.62,2.34Z"/><path class="cls-3" d="M50.17,123.75c-1.32,0-.74-.87-1.25-.87-.12,0-.16.06-.16.26,0,.52.05,1,.05,1.59s-.05,1.06-.05,1.56c0,.17,0,.27.21.27s-.09-1.32,1.39-1.32h1.88c.29,0,.61.07.61.42v3.58c0,.25-.18.3-.54.3H50.18c-1.19,0-.8-.93-1.22-.93-.13,0-.2.11-.2.28,0,.35.05.83.05,1.55s-.05,1-.05,1.35,0,.59.21.59c.51,0-.07-1.36,1.39-1.36h6c1.67,0,1.18,1,1.72,1,.18,0,.2-.12.2-.27,0-.6-.05-1.11-.05-1.61,0-.87.05-1.27.05-1.76s-.11-.36-.19-.36c-.48,0,0,1.49-1.66,1.49h-2.1c-.58,0-.72,0-.72-.59v-3.22c0-.53.14-.49.7-.49h2.42c1.3,0,.94.88,1.41.88.09,0,.14-.08.14-.24,0-.62-.05-1.09-.05-1.52s.05-1.21.05-1.61c0-.16,0-.25-.16-.25-.52,0,0,1.25-1.73,1.25Z"/><path class="cls-3" d="M56.57,120.21c1.36.14,1,1.27,1.54,1.31.22,0,.17-.22.19-.35,0-.33,0-.65.05-1s.14-.82.2-1.42c0-.15.06-.45-.13-.47-.63-.06.13,1.57-2.43,1.31l-4.55-.45c-.12,0-.21,0-.2-.12s.08-.12.19-.2L59,113.69c.11-.07.2-.12.21-.29s-.09-.16-.38-.19l-7.49-.75c-1.4-.13-1-1.13-1.38-1.16,0,0-.18,0-.2.21s0,.53-.08,1.28-.17,1.18-.19,1.37.11.21.21.22c.44,0,.35-1.45,1.56-1.33l4.45.45c.34,0,.49.07.49.15s-.18.2-.39.33l-6.37,4.25c-.28.19-.36,0-.4.41-.06.64,0,1-.07,1.27s-.1.45-.12.67a.19.19,0,0,0,.2.22c.64.07-.09-1.36,2.48-1.1l5.08.51Z"/><path class="cls-3" d="M52.2,106.49c-1.24-.27-.58-1.06-1-1.15-.16,0-.21,0-.28.37-.14.68-.18,1.11-.27,1.53s-.24.87-.33,1.33c0,.1-.13.39.09.43.46.1.38-1.3,1.57-1.06l6.28,1.34c1.25.27.73,1,1.19,1.14.07,0,.17,0,.19-.1.06-.3.11-.82.22-1.32.2-.93.34-1.35.43-1.78.07-.27,0-.39-.11-.42-.42-.09-.1,1.35-1.71,1l-6.25-1.32Z"/><path class="cls-3" d="M55,95.39c-.06,0-.1,0-.12.11s.34.33.26.54-1.22.91-1.75,2.27c-1.08,2.84,1.23,5.06,3.34,5.86,1,.38,4.37,1.11,5.64-2.19a3.9,3.9,0,0,0-1-4.51.19.19,0,0,0-.2.11c-.12.29,1.23,1.68.56,3.43-.82,2.14-3.65,2.1-5.42,1.42s-3.07-2.23-2.43-3.88c.49-1.31,2-1.88,3.38-2,.2,0,.49,0,.56-.18s-.23-.25-.36-.29L55,95.39Z"/><path class="cls-4" d="M84.58,213.13c.08-.92.06-1-.17-1.11s-.68.26-1.07.58L68.89,224.73c-1.35,1.11-2.5.33-2.8.91-.18.33.25.49.58.66.71.36,1.47.61,2.2,1s1.45.87,2.23,1.26c.51.26,1.17.82,1.44.29.35-.69-2.48-1.61-1.54-3.47a9,9,0,0,1,1.54-1.76c1.42-1.39,2-1.24,2.4-1L79.71,225c.64.33.63.64.41,3a5,5,0,0,1-.43,1.93c-.79,1.56-2.37.4-2.75,1.15-.19.35.16.46.59.68.71.37,1.66.72,2.73,1.26,1.59.82,2.2,1.25,3.07,1.7.66.33.86.5,1.08.06.42-.84-1.39-.51-1.25-2.72l1.42-19Zm-3.8,9.21a3,3,0,0,1-.22,1.09c-.13.25-.45,0-.89-.17l-3.3-1.68c-.45-.23-.79-.38-.67-.63a2.65,2.65,0,0,1,.75-.81l4.18-3.57c.26-.23.37-.2.42-.18s0,0,.09.31l-.36,5.64Z"/><path class="cls-4" d="M199.58,213c-.59-.75-1.06,1-3,0L180,203.71c-.81-.47-.89-.47-1.08-.32s0,.73.08,1.2l4.86,18.24c.45,1.68-.74,2.4-.33,2.92.22.29.53,0,.83-.26.62-.47,1.17-1.06,1.82-1.56s1.41-1,2.09-1.49c.46-.35,1.24-.72.87-1.19s-2.52,1.56-3.79-.06a8.73,8.73,0,0,1-.94-2.14c-.67-1.88-.3-2.32.07-2.61l4.24-3.31c.56-.43.84-.28,2.93.92a5.38,5.38,0,0,1,1.57,1.22c1.08,1.37-.64,2.32-.13,3,.25.32.49,0,.88-.25.61-.49,1.35-1.2,2.29-1.94,1.41-1.1,2.07-1.47,2.84-2.07.57-.44.81-.56.51-.94Zm-12.52-.61-2.92,2.29c-.38.3-.67.55-.85.33a3.08,3.08,0,0,1-.41-1l-1.48-5.3c-.08-.33,0-.42,0-.46s0,0,.32,0L186.7,211a3,3,0,0,1,.9.65c.17.23-.15.44-.54.74Z"/><path class="cls-4" d="M106.87,53.09l-.57-2.66a2,2,0,0,0-2.38-1.54l-2.31.5L101.1,47a2,2,0,0,0-2.39-1.55L96.08,46a2,2,0,0,0-1.55,2.39L95,50.78l-2.28.48a2,2,0,0,0-1.55,2.39l.57,2.66a2,2,0,0,0,2.39,1.55l11.17-2.38a2,2,0,0,0,1.55-2.39Zm-7.19,3.39a2.9,2.9,0,1,1,2.24-3.43,2.89,2.89,0,0,1-2.24,3.43Z"/><path class="cls-4" d="M130.35,46.06H128l0-2.46a2,2,0,0,0-2-2h-2.7a2,2,0,0,0-2,2v2.47h-2.36a2,2,0,0,0-2,2V50.8a2,2,0,0,0,2,2h11.42a2,2,0,0,0,2-2V48.07a2,2,0,0,0-2-2Zm-5.7,6.55a2.9,2.9,0,1,1,2.9-2.9,2.9,2.9,0,0,1-2.9,2.9Z"/><path class="cls-4" d="M156.7,51.26l-2.27-.48.5-2.42A2,2,0,0,0,153.38,46l-2.64-.56A2,2,0,0,0,148.36,47l-.52,2.43-2.31-.5a2,2,0,0,0-2.39,1.54l-.56,2.66a2,2,0,0,0,1.55,2.39l11.17,2.38a2,2,0,0,0,2.39-1.55l.57-2.66a2,2,0,0,0-1.56-2.39Zm-3.5,3A2.9,2.9,0,1,1,151,50.81a2.89,2.89,0,0,1,2.23,3.44Z"/><path class="cls-4" d="M176,56.25a2,2,0,0,0-2.77.69l-1.27,2.13-2-1.23a2,2,0,0,0-2.76.69l-1.4,2.33a2,2,0,0,0,.69,2.77l4.37,2.79a2,2,0,0,0,2.77-.69L175,63.4c.58-.95,1-1.82,1-1.82l2.28-3.94L176,56.25ZM171.29,66a2.9,2.9,0,1,1,3-5l-3,5Z"/><path class="cls-4" d="M83.73,60.86l-1.41-2.33a2,2,0,0,0-2.76-.69l-2,1.23-1.28-2.13a2,2,0,0,0-2.76-.69L71.2,57.63l2.29,3.95s.43.87,1,1.82l1.41,2.33a2,2,0,0,0,2.76.69L83,63.63a2,2,0,0,0,.69-2.77ZM78.16,66l-3-5a2.89,2.89,0,1,1,3,5Z"/><path class="cls-4" d="M58.88,54.78a.36.36,0,0,0-.53,0c-.16.18-.18.46-.33.63a.78.78,0,0,1-.88.32c-3.81-1.12-8.24-2.38-8.37-2.49s0-.86,0-1.79a4.87,4.87,0,0,0-1.83-3.36,5,5,0,0,0-7.65.62c-1,1.16-1.95,2.41-3,3.57s-1.16,1.16-1.85,1.95a.45.45,0,0,0,0,.67c.78.67,1.62-1.91,4,.2L48,63.38c2.72,2.37.78,3.16,1.48,3.76.43.38.68,0,.85-.24.75-.86,1.42-1.81,2.23-2.74.63-.72,1.13-1.12,1.39-1.41s.33-.66.14-.82c-.79-.68-1.39,1.81-3.71-.21l-3.74-3.26c-.76-.65-1-.68-.2-1.6s1.22-1,2.52-.58l4.68,1.52c1.73.56,3.57,1.19,4.76-.18.6-.7,1.12-2.26.45-2.84Zm-13.11.87c-.45.52-1,1.16-1.55.69l-4.38-3.81c-1.3-1.13-.83-1.66-.27-2.3,1.52-1.75,4-1.33,6.09.51,1.28,1.11,2.4,2.27.11,4.91Z"/><path class="cls-4" d="M104.66,31.87c-.29-.9-1.13.55-2.45-1.17L90.88,15.92c-.55-.73-.6-.77-.81-.71s-.22.65-.23,1.14l-.56,18.43c0,1.71-1.21,1.91-1,2.54.12.34.45.18.76.08.63-.21,1.23-.52,1.88-.73s1.4-.33,2.09-.56c.46-.15,1.2-.18,1-.75-.24-.74-2.47.46-3.1-1.5a9.84,9.84,0,0,1-.24-2.3c-.09-2,.33-2.23.71-2.35l4.3-1.39c.57-.19.76.05,2.18,1.94a5.81,5.81,0,0,1,1,1.7c.55,1.66-1.1,1.87-.84,2.66.12.38.39.24.78.11.63-.21,1.41-.58,2.37-.89,1.44-.47,2.06-.55,2.85-.81.59-.19.8-.2.65-.66ZM94.53,26.56l-3,1c-.4.12-.69.25-.79,0a3.33,3.33,0,0,1-.08-1.08L90.81,21c0-.34.09-.39.14-.4s0,0,.24.16l3.39,4.35a2.89,2.89,0,0,1,.57.94c.09.27-.23.34-.62.47Z"/><path class="cls-4" d="M239.82,119.61c0-.3-.58-.36-1.06-.47l-18-4.48c-1.66-.41-1.61-1.61-2.26-1.54-.38,0-.29.4-.25.73.07.66.25,1.31.32,2s0,1.43.1,2.17c.05.49-.08,1.21.51,1.15.78-.08.07-2.5,2.13-2.71a9.59,9.59,0,0,1,2.32.26c2,.33,2.11.8,2.15,1.19l.45,4.52c.06.6-.22.74-2.38,1.72a6.2,6.2,0,0,1-1.88.61c-1.74.17-1.59-1.49-2.42-1.4-.41,0-.32.33-.28.74.07.66.27,1.5.37,2.52.15,1.51.1,2.14.18,3,.06.63,0,.83.51.79.95-.09-.3-1.22,1.67-2.16l16.93-8c.84-.39.89-.44.86-.65Zm-5.71-.1-5,2.41a3.06,3.06,0,0,1-1,.35c-.29,0-.29-.29-.33-.71l-.31-3.11c-.05-.42-.11-.74.18-.77a3.27,3.27,0,0,1,1.09.15l5.25,1.26c.33.08.36.17.36.22s0,0-.2.2Z"/><path class="cls-4" d="M198.35,103.66c-.91-2.71-3.62-3.5-6.57-2.55-2.73.89-4,3-3.3,5.3,1.19,3.63,4.7,3.25,6.59,2.65,2.84-.93,4-3.19,3.28-5.4Zm-4.27,4.17c-2.23.72-4.24.67-4.91-1.27s1.87-3.66,3.83-4.29,4-.67,4.66,1.24c.5,1.46-.61,3.35-3.58,4.32Z"/><path class="cls-4" d="M194.43,94.6c-.34-.73-.74-1.44-1.08-2.17s-.31-.79-.54-1.29c-.06-.13-.17-.21-.3-.16-.47.22.56,1.18-.87,1.86L186,95.46c-1.61.76-1.6-.32-2-.13-.25.12-.11.33-.06.45.26.54.56,1.06.84,1.64s.29.78.38,1,.23.3.35.25c.45-.22-.57-1,.8-1.68l2.22-1c.45-.21.5-.31.77.26s.23.79-.22,1.3l-1.59,1.86c-.59.68-1.23,1.4-.84,2.25.2.44.83,1,1.21.84a.18.18,0,0,0,.11-.24c-.05-.11-.17-.18-.22-.3a.4.4,0,0,1,0-.48c1.25-1.53,2.68-3.32,2.75-3.36s.39.2.84.38a2.32,2.32,0,0,0,1.89-.12,2.54,2.54,0,0,0,1.19-3.7Zm-2.17,2.54c-.76.35-1.51.62-2.28-1-.15-.32-.33-.72,0-.87L192.56,94c.76-.36.92,0,1.1.38.52,1.09-.15,2.14-1.4,2.73Z"/><path class="cls-4" d="M201.22,120.17c-.5,0-.11,1.31-1.69,1.15l-6.22-.62c-1.79-.18-1.22-1.11-1.67-1.15-.28,0-.26.23-.27.36-.07.6-.07,1.2-.14,1.84s-.13.83-.15,1,0,.38.18.39c.51,0,0-1.19,1.55-1l2.45.25c.49.05.59,0,.53.61s-.21.81-.85,1l-2.34.78c-.85.29-1.79.58-1.88,1.53-.05.48.19,1.3.63,1.34a.16.16,0,0,0,.2-.16c0-.12-.05-.25,0-.37a.45.45,0,0,1,.26-.41c1.87-.68,4-1.49,4.11-1.48s.24.37.52.76a2.39,2.39,0,0,0,1.71.86,2.54,2.54,0,0,0,2.92-2.59c.08-.81.11-1.62.19-2.42s.14-.85.2-1.39c0-.15,0-.28-.2-.29Zm-.75,3.55c-.12,1.2-1.23,1.77-2.61,1.63-.84-.08-1.63-.23-1.44-2,0-.36.08-.8.43-.76l2.86.28c.84.09.81.46.76.9Z"/><path class="cls-4" d="M68.67,89.3c-.39-.22-.25.6-1.27.48l-8.74-1.13c-.43-.06-.47-.05-.51,0s.11.31.25.49L63.9,96c.52.62.15,1.12.42,1.26s.22-.09.3-.24.3-.64.47-1,.42-.63.6-1,.38-.5.13-.63-.75,1.06-1.6.6a4.06,4.06,0,0,1-.8-.74c-.63-.67-.56-.92-.46-1.1l1.14-2.07c.16-.27.31-.26,1.41-.1a2.41,2.41,0,0,1,.89.24c.72.4.18,1.07.51,1.26.17.09.22-.06.33-.25s.33-.72.59-1.19c.39-.69.59-.95.8-1.33s.24-.37,0-.47ZM63.3,91.11l-.8,1.44c-.11.18-.18.34-.29.27a1.24,1.24,0,0,1-.37-.35l-1.63-2c-.1-.13-.07-.17-.07-.2s0,0,.14,0l2.6.32a1.15,1.15,0,0,1,.5.12c.12.06,0,.21-.08.39Z"/><path class="cls-3" d="M164.67,88.48H82v45.16c0,19.93,1.21,36.42,16.5,52,9,9.16,15.11,13.35,25.26,20.29l.61.43,1.12.76,1-.86c3.13-2.59,5.86-4.56,8.51-6.46,5.43-3.92,10.12-7.3,16.1-14.43,14.56-17.37,17.13-30.51,17.13-51.7V88.48ZM148.39,183c-5.69,6.78-10.22,10-15.46,13.82-2.69,1.94-4.43,3.09-7.64,5.75-9.67-6.62-15.64-10.75-24.25-19.51-14.36-14.61-15.47-29.72-15.47-49.46V92.05h79.1v41.57c0,20.72-2.35,32.77-16.28,49.4Z"/><polygon class="cls-3" points="211.95 44.29 210.51 41.7 209.19 45.82 210.06 47.4 211.95 44.29 211.95 44.29"/><path class="cls-3" d="M109.18,27.72c.71,3.35-2.13,2.54-1.89,3.63.13.62.51.52.92.43.89-.19,1.61-.46,3.12-.78s2.28-.37,3.18-.56c.66-.14,1.13-.16,1-.83s-2.88.65-3.61-2.82l-2.71-12.74c-.29-1.35-.09-1.54.83-1.74l1.92-.41c2.56-.66,2.51,2.62,3.41,2.44.59-.13.1-1.17,0-1.51l-.8-2.53c-.08-.28-.17-.68-.5-.6-2.1.44-3.59.87-6.88,1.57s-4.82.91-6.92,1.35c-.34.08-.25.47-.22.76l.44,3.8c0,.37,0,1,.49.92,1-.22-.44-3.76,2.11-4.31l1.89-.4c.93-.19,1.18-.1,1.47,1.25l2.78,13.08Z"/><path class="cls-3" d="M79,38.34c1.59,3-1.36,3-.84,4,.29.56.62.36,1,.17.81-.43,1.43-.89,2.8-1.6s2.1-1,2.92-1.39c.58-.31,1-.44.71-1.06S83,39.86,81.33,36.72l-6-11.54c-.65-1.23-.51-1.47.33-1.9l1.73-.91c2.3-1.32,3.12,1.85,3.94,1.42.53-.27-.21-1.15-.41-1.44l-1.46-2.23c-.15-.25-.34-.6-.64-.44-1.9,1-3.22,1.8-6.2,3.36s-4.41,2.17-6.3,3.16c-.31.16-.12.52,0,.79l1.43,3.54c.13.35.31,1,.73.75.92-.48-1.43-3.51.88-4.7l1.71-.9c.83-.44,1.11-.42,1.75.81L79,38.34Z"/><polygon class="cls-3" points="113.27 217.07 110.33 217.28 113.5 220.19 115.27 220.07 113.27 217.07 113.27 217.07"/><path class="cls-3" d="M331.92,22a14.2,14.2,0,0,0,3.09.37,7.64,7.64,0,0,0,2.26-.37c-.6,7-1.21,20.29-1.36,31.3-.15,13.35-7.92,21.73-21.49,21.73-14.94,0-21.58-6.94-21.58-21.58,0-4.67.38-8.14.38-11.91,0-8.3-.3-15.17-.45-19.54a23.63,23.63,0,0,0,3.92.37,15.79,15.79,0,0,0,3.25-.37c-.46,4.45-.91,14.71-.91,25.88,0,10.25,0,23.6,16.82,23.6,16.52,0,16.52-15.46,16.52-25,0-14.34,0-21.58-.45-24.52Z"/><path class="cls-3" d="M399.06,75.07c-11.46-13.5-25.19-28-38.09-41.72-.07,2.8-.23,7.32-.23,15.32,0,6.48.3,22.4.68,25.42a10,10,0,0,0-2.64-.38,12,12,0,0,0-2.78.38c.59-3.55,1.58-22.86,1.58-32.82,0-9.5,0-16.82-.23-20.21h1.21c12.29,13.35,29,31.53,38.17,40.81,0-13.5,0-28.22-.61-39.83a10.36,10.36,0,0,0,2.57.37A9.15,9.15,0,0,0,401.1,22c-.45,4.45-1.21,19.39-1.21,25.27,0,7.69.15,24.36.23,27.76Z"/><path class="cls-3" d="M421,41.58c0-6.49-.3-13-.6-19.54a21.77,21.77,0,0,0,3.69.37,21.78,21.78,0,0,0,3.7-.37c-.3,6.49-.6,13.05-.6,19.54v13c0,6.49.3,13,.6,19.54a18.15,18.15,0,0,0-7.39,0c.3-6.49.6-13.05.6-19.54v-13Z"/><path class="cls-3" d="M440.59,22a23.75,23.75,0,0,0,3.93.37,23.63,23.63,0,0,0,3.92-.37c4.45,13.35,10.86,29.34,17.2,44.58,5.5-12.22,14-34.7,17.12-44.58a10.7,10.7,0,0,0,5.58,0q-11.77,26-21.72,52.05a9.4,9.4,0,0,0-2.49-.38,8.5,8.5,0,0,0-2.49.38c-4.53-12.45-13.73-34.7-21.05-52Z"/><path class="cls-3" d="M501.52,41.5c0-6.49-.29-13-.6-19.46,4.52.22,9,.37,13.51.37s9-.15,13.42-.37a11.63,11.63,0,0,0-.23,2.26,11.48,11.48,0,0,0,.23,2.26c-6.34-.45-10-1-19.84-1-.08,3.25-.3,5.89-.3,9.58,0,3.93.07,8.08.07,10,8.91,0,13.88-.37,18.34-.75a12.27,12.27,0,0,0-.23,2.33,11.66,11.66,0,0,0,.23,2.27c-5.22-.53-14.72-.68-18.34-.68-.07,1.81-.07,3.69-.07,10.94,0,5.73.07,9.43.15,11.31,6.72,0,15.61-.07,20.37-1A12.37,12.37,0,0,0,528,71.9a10.86,10.86,0,0,0,.23,2.19c-4.45-.23-9-.38-13.58-.38s-9.13.15-13.73.38c.31-6.57.6-13.13.6-19.61v-13Z"/><path class="cls-3" d="M543.91,41.58c0-6.49-.29-13-.59-19.54,2.86.22,5.73.37,8.59.37s5.75-.37,8.61-.37C569.05,22,576.21,25,576.21,34c0,9.73-9.73,13.66-15.46,14.42,3.7,4.6,16.29,20.82,20.67,25.72a30.1,30.1,0,0,0-4.53-.38,27.93,27.93,0,0,0-4.37.38c-3-4.6-13.06-18.48-19.55-25.05H550.1v5.51c0,6.49.3,13,.61,19.54a18.15,18.15,0,0,0-7.39,0c.3-6.49.59-13.05.59-19.54v-13Zm6.19,4.3a25,25,0,0,0,5.06.37c6.2,0,14.41-2.57,14.41-11.54,0-7.92-6.56-9.88-11.69-9.88a69.89,69.89,0,0,0-7.33.38c-.22,5.5-.45,10.94-.45,16.37v4.3Z"/><path class="cls-3" d="M593.58,64.05A13,13,0,0,0,605.5,71.9c6.71,0,10.78-4.9,10.78-10.94,0-13.88-23.75-7.92-23.75-25.64,0-8.38,6.33-14.26,16.36-14.26,4.76,0,8.15,1.13,11.16,3.55a23.07,23.07,0,0,0-2,6.33h-.9c-1.07-2.79-3.32-7.09-9-7.09s-9.73,3.84-9.73,9.35c0,14.11,23.77,8.23,23.77,24.9,0,9.2-6.87,17-18.48,17a18.39,18.39,0,0,1-12.45-4.3,22.35,22.35,0,0,0,1.43-6.72Z"/><path class="cls-3" d="M639.05,41.58c0-6.49-.3-13-.59-19.54a21.57,21.57,0,0,0,3.69.37,21.78,21.78,0,0,0,3.7-.37c-.31,6.49-.61,13.05-.61,19.54v13c0,6.49.3,13,.61,19.54a18.15,18.15,0,0,0-7.39,0c.29-6.49.59-13.05.59-19.54v-13Z"/><path class="cls-3" d="M292.86,118.51c0-6.48-.3-13.05-.6-19.53,2.41.22,4.9.38,7.31.38s7.24-.38,9.36-.38c4.52,0,16.51.15,16.51,12.75,0,13.28-13,15.84-20.29,15.84-2.26,0-4.14-.08-6.11-.23v4.15c0,6.49.31,13,.61,19.54a18.15,18.15,0,0,0-7.39,0c.3-6.49.6-13.05.6-19.54v-13Zm6.18,5.66a25.24,25.24,0,0,0,5.36.61c6.19,0,14.1-2.34,14.1-12.6,0-8.6-4.9-10.41-12.66-10.41H299v22.4Z"/><path class="cls-3" d="M362.08,98c16.66,0,28.28,9.88,28.28,27s-11.62,27-28.28,27-28.22-9.89-28.22-27,11.62-27,28.22-27Zm0,2.79c-11.77,0-20.82,7.47-20.82,24.22s9.05,24.21,20.82,24.21S383,141.75,383,125s-9.05-24.22-20.89-24.22Z"/><path class="cls-3" d="M402.88,118.51c0-6.48-.3-13.05-.6-19.53a18.15,18.15,0,0,0,7.39,0c-.3,6.48-.6,13-.6,19.53,0,12.68.15,21.57.22,29a151.33,151.33,0,0,0,20.82-1,6.94,6.94,0,0,0,0,4.53c-4.59-.23-9.28-.38-13.88-.38s-9.28.15-14,.38c.3-6.49.6-13.05.6-19.54v-13Z"/><path class="cls-3" d="M443.91,118.51c0-6.48-.3-13.05-.6-19.53a18.15,18.15,0,0,0,7.39,0c-.3,6.48-.6,13-.6,19.53v13c0,6.49.3,13,.6,19.54a18.15,18.15,0,0,0-7.39,0c.3-6.49.6-13.05.6-19.54v-13Z"/><path class="cls-3" d="M479.21,118.51q0-7.8-.23-15.61a150,150,0,0,0-16.14.83,8.32,8.32,0,0,0,.38-2.41,8.71,8.71,0,0,0-.38-2.34c6.49.22,13,.38,19.46.38s13-.16,19.46-.38a9.15,9.15,0,0,0-.37,2.41,8.59,8.59,0,0,0,.37,2.34,152.45,152.45,0,0,0-16.13-.83q-.22,7.8-.23,15.61v13c0,6.49.3,13,.6,19.54a18.2,18.2,0,0,0-7.4,0c.31-6.49.61-13.05.61-19.54v-13Z"/><path class="cls-3" d="M593.83,147.7c-1.89,1.52-8.15,4.31-15.69,4.31-15.92,0-27.54-9.89-27.54-27s11.62-27,28.29-27a39.84,39.84,0,0,1,16.37,3.47,24.74,24.74,0,0,0-1.58,5.88l-.46.15c-2.11-2.34-7.23-6.71-14.33-6.71-11.84,0-20.9,7.47-20.9,24.22s9.06,24.21,20.9,24.21c7.17,0,12.45-4.08,15.31-6.26l.3.3-.67,4.44Z"/><path class="cls-3" d="M650.78,152c-11.47-13.51-25.2-28-38.09-41.72-.08,2.79-.23,7.32-.23,15.32,0,6.49.3,22.4.68,25.42a10,10,0,0,0-2.64-.38,12.2,12.2,0,0,0-2.79.38c.6-3.55,1.58-22.86,1.58-32.81,0-9.51,0-16.83-.22-20.22h1.2c12.3,13.35,29,31.53,38.17,40.81,0-13.5,0-28.21-.6-39.83a10.24,10.24,0,0,0,2.57.38,9.1,9.1,0,0,0,2.4-.38c-.44,4.45-1.2,19.39-1.2,25.27,0,7.69.15,24.36.23,27.76Z"/><path class="cls-3" d="M669.21,118.51c0-6.48-.31-13.05-.61-19.53A18.15,18.15,0,0,0,676,99c-.3,6.48-.6,13-.6,19.53v13c0,6.49.3,13,.6,19.54a18.15,18.15,0,0,0-7.39,0c.3-6.49.61-13.05.61-19.54v-13Z"/><path class="cls-3" d="M732.75,147.7c-1.89,1.52-8.15,4.31-15.7,4.31-15.91,0-27.53-9.89-27.53-27s11.62-27,28.29-27a39.92,39.92,0,0,1,16.37,3.47,25.22,25.22,0,0,0-1.58,5.88l-.46.15c-2.11-2.34-7.24-6.71-14.33-6.71-11.84,0-20.89,7.47-20.89,24.22s9.05,24.21,20.89,24.21c7.17,0,12.44-4.08,15.31-6.26l.31.3-.68,4.44Z"/><path class="cls-3" d="M293.44,195.46c0-6.49-.3-13.05-.6-19.54,3.77.22,7.62.38,11.39.38s7.62-.38,11.39-.38c17.65,0,24.89,9.43,24.89,25C340.51,221,325,228,313.05,228c-3.39,0-6.71-.37-10.1-.37s-6.71.14-10.11.37c.3-6.49.6-13.05.6-19.54v-13Zm6.19,13c0,5.36.15,10.79.45,16a54.67,54.67,0,0,0,9.89.75c11.08,0,23.15-4.37,23.15-24.28,0-17.5-9.05-21.81-21.43-21.81a95.93,95.93,0,0,0-11.61.76c-.3,4.83-.45,10.19-.45,15.62v13Z"/><path class="cls-3" d="M350,195.38c0-6.49-.3-13-.6-19.46,4.52.22,9,.38,13.5.38s9-.16,13.43-.38a10.84,10.84,0,0,0-.23,2.26,11,11,0,0,0,.23,2.27c-6.34-.46-10-1-19.84-1-.08,3.25-.3,5.89-.3,9.58,0,3.93.07,8.07.07,10,8.9,0,13.88-.38,18.33-.76a12.43,12.43,0,0,0-.22,2.34,11.64,11.64,0,0,0,.22,2.27c-5.2-.53-14.71-.68-18.33-.68-.07,1.81-.07,3.69-.07,10.94,0,5.73.07,9.43.14,11.31,6.72,0,15.62-.07,20.37-1a12.36,12.36,0,0,0-.22,2.34,10.85,10.85,0,0,0,.22,2.19c-4.45-.23-9-.37-13.58-.37s-9.12.14-13.72.37c.3-6.56.6-13.13.6-19.62v-13Z"/><path class="cls-3" d="M425.59,175.92a23.55,23.55,0,0,0,3.92.38,23.88,23.88,0,0,0,3.93-.38c4.44,13.35,10.85,29.34,17.19,44.58,5.51-12.22,13.95-34.7,17.12-44.58a12.16,12.16,0,0,0,2.79.38,12,12,0,0,0,2.79-.38q-11.76,26-21.72,52.05a9.31,9.31,0,0,0-2.48-.37,8.45,8.45,0,0,0-2.49.37c-4.53-12.45-13.73-34.7-21.05-52.05Z"/><path class="cls-3" d="M530.94,195.46c0-6.49-.3-13.05-.59-19.54a21.6,21.6,0,0,0,3.69.38,22,22,0,0,0,3.7-.38c-.3,6.49-.61,13.05-.61,19.54,0,12.67.15,21.57.23,29a151.33,151.33,0,0,0,20.82-1,6.94,6.94,0,0,0,0,4.53c-4.6-.23-9.28-.37-13.88-.37s-9.28.14-13.95.37c.29-6.49.59-13.05.59-19.54v-13Z"/><path class="cls-3" d="M653.8,229c-11.46-13.5-25.19-28-38.1-41.72-.06,2.8-.21,7.32-.21,15.32,0,6.48.29,22.4.67,25.42a10,10,0,0,0-2.64-.37,12.1,12.1,0,0,0-2.79.37c.61-3.55,1.58-22.86,1.58-32.82,0-9.5,0-16.82-.23-20.22h1.22c12.29,13.35,29,31.54,38.16,40.82,0-13.5,0-28.21-.61-39.83a10.45,10.45,0,0,0,2.57.38,9.24,9.24,0,0,0,2.42-.38c-.46,4.45-1.21,19.38-1.21,25.27,0,7.69.15,24.36.22,27.76Z"/><path class="cls-3" d="M710.14,224.65c-1.89,1.51-8.15,4.3-15.69,4.3-15.92,0-27.54-9.88-27.54-27s11.62-27,28.28-27a39.88,39.88,0,0,1,16.38,3.48,24.74,24.74,0,0,0-1.58,5.88l-.46.15c-2.11-2.34-7.24-6.71-14.34-6.71-11.84,0-20.89,7.47-20.89,24.22s9.05,24.21,20.89,24.21c7.18,0,12.46-4.08,15.32-6.27l.3.31-.67,4.45Z"/><path class="cls-3" d="M723.35,195.46c0-6.49-.31-13.05-.61-19.54a18.15,18.15,0,0,0,7.39,0c-.29,6.49-.6,13.05-.6,19.54v13c0,6.49.31,13,.6,19.54a18.64,18.64,0,0,0-7.39,0c.3-6.49.61-13.05.61-19.54v-13Z"/><path class="cls-3" d="M752.53,144.55a5.93,5.93,0,1,1,5.92,5.92,5.93,5.93,0,0,1-5.92-5.92Z"/><path class="cls-3" d="M773,130.18l-9.43-22.63-9.65,22.63a201.94,201.94,0,0,0-7.32,20.21,10.7,10.7,0,0,0-5.58,0c8.08-17.65,15.92-35.23,23.61-53h1.44c7.38,17.5,18.7,45,22.7,53a21.81,21.81,0,0,0-8,0c-1.43-5.2-5-13.5-7.77-20.21Z"/><path class="cls-3" d="M752.78,221.58a5.93,5.93,0,1,1,5.92,5.91,5.92,5.92,0,0,1-5.92-5.91Z"/><path class="cls-3" d="M773.23,207.2l-9.43-22.62-9.65,22.62a202.84,202.84,0,0,0-7.32,20.21,10.7,10.7,0,0,0-5.58,0c8.07-17.64,15.91-35.22,23.61-53h1.44c7.38,17.5,18.7,45,22.7,53a21.81,21.81,0,0,0-8,0c-1.43-5.2-5-13.49-7.77-20.21Z"/><path class="cls-3" d="M484.58,221.58a5.93,5.93,0,1,1,5.93,5.91,5.93,5.93,0,0,1-5.93-5.91Z"/><path class="cls-3" d="M505,207.2l-9.43-22.62L486,207.2a207.57,207.57,0,0,0-7.31,20.21,10.7,10.7,0,0,0-5.58,0c8.07-17.64,15.91-35.22,23.61-53h1.43c7.39,17.5,18.71,45,22.7,53a21.75,21.75,0,0,0-8,0c-1.44-5.2-5.06-13.49-7.77-20.21Z"/><path class="cls-3" d="M675,42.16q0-7.81-.23-15.61a150.16,150.16,0,0,0-16.14.82A8.68,8.68,0,0,0,659,25a9.19,9.19,0,0,0-.38-2.34c6.49.23,13,.38,19.46.38s13-.15,19.46-.38a8.83,8.83,0,0,0-.38,2.41,8.24,8.24,0,0,0,.38,2.34,150.3,150.3,0,0,0-16.14-.82q-.23,7.8-.22,15.61v13c0,6.49.3,13.05.59,19.54a18.15,18.15,0,0,0-7.39,0c.31-6.49.61-13.05.61-19.54v-13Z"/><path class="cls-3" d="M766.2,42.16q0-7.81-.23-15.61a150.16,150.16,0,0,0-16.14.82,8.68,8.68,0,0,0,.38-2.41,9.19,9.19,0,0,0-.38-2.34c6.48.23,13,.38,19.46.38s13-.15,19.46-.38a8.83,8.83,0,0,0-.38,2.41,8.24,8.24,0,0,0,.38,2.34,150.36,150.36,0,0,0-16.15-.82c-.15,5.2-.21,10.4-.21,15.61v13c0,6.49.29,13.05.59,19.54a18.15,18.15,0,0,0-7.39,0c.31-6.49.61-13.05.61-19.54v-13Z"/><path class="cls-4" d="M589.81,171.66l-9.63-9.51a26.1,26.1,0,0,0-2.91-2.74,2.55,2.55,0,0,0-1-.52,2.69,2.69,0,0,0-3.14,1.59,2.66,2.66,0,0,0,.09,2.05,6.35,6.35,0,0,0,1.89,1.68l12,7.45ZM577,179.57h5.88l7.66.15a52.3,52.3,0,0,1,6.88.84,22.29,22.29,0,0,1-.23-2.28c0-.77.15-1.45.23-2.28H570.32v51.79h27.6a22.1,22.1,0,0,1-.23-2.27c0-.77.15-1.46.23-2.29a55.9,55.9,0,0,1-7,.68c-4.58.15-9.17.46-13.84.31V202h11.85c2.3,0,4.51.3,6.81.37-.07-.82-.23-1.51-.23-2.13a17.15,17.15,0,0,1,.23-2c-2.3.08-4.51.38-6.81.38H577V179.57Z"/><path class="cls-4" d="M532.28,95l-9.64-9.51a24.24,24.24,0,0,0-2.91-2.73,2.42,2.42,0,0,0-1-.53,2.69,2.69,0,0,0-3.13,1.59,2.73,2.73,0,0,0,.08,2.06,6.81,6.81,0,0,0,1.91,1.67l12,7.45Zm-12.78,7.92h5.89L533,103a54,54,0,0,1,6.88.84c-.07-.76-.23-1.52-.23-2.29s.16-1.44.23-2.27H512.78v51.8h27.6a22.57,22.57,0,0,1-.23-2.28c0-.77.15-1.45.23-2.29a55.92,55.92,0,0,1-7,.69c-4.59.15-9.17.46-13.84.31V125.32h11.85c2.31,0,4.52.3,6.81.38-.08-.84-.23-1.52-.23-2.12a14.74,14.74,0,0,1,.23-2c-2.29.07-4.5.37-6.81.37H519.5V102.89Z"/><path class="cls-3" d="M711.77,67.76a6,6,0,1,1,6,5.92,5.94,5.94,0,0,1-6-5.92Zm11-46.7h1.52L746,71.23l1.3,2.73a33.83,33.83,0,0,0-3.89-.23,25.78,25.78,0,0,0-4.2.23l-.68-2.2-3.44-9.11-3.73-8.95-9.6-22.91L711.93,53.7c-2.66,6.67-5.41,13.35-7.47,20.26a10.22,10.22,0,0,0-2.67-.23A18.1,18.1,0,0,0,699,74l23.81-52.9Z"/></g></g></g></g></svg>